<?xml version="1.0" encoding="utf-8"?>
<!-- Generator: Adobe Illustrator 19.2.0, SVG Export Plug-In . SVG Version: 6.00 Build 0)  -->
<svg version="1.1" id="XMLID_1_" xmlns="http://www.w3.org/2000/svg" xmlns:xlink="http://www.w3.org/1999/xlink" x="0px" y="0px"
	 viewBox="0 0 229.507 52.3495" enable-background="new 0 0 229.507 52.3495" xml:space="preserve">
<g id="logo-bluemix">
	<g>
		<g>
			<path fill="#1C3649" d="M65.8304,15.4367h1.999v20.9891h-1.999V15.4367z"/>
			<path fill="#1C3649" d="M70.3142,15.4367h8.8777c3.5276,0,6.7318,1.2346,6.7318,5.1444c0,2.2047-1.4698,4.2331-3.6452,4.7034
				v0.0588c2.7045,0.3528,4.4389,2.3811,4.4389,5.115c0,1.999-0.7055,5.9675-7.5255,5.9675h-8.8777V15.4367z M72.3132,24.6378
				h6.8788c3.1748,0,4.7328-1.5874,4.7328-3.557c0-2.6163-1.5874-3.9391-4.7328-3.9391h-6.8788V24.6378z M72.3132,34.7208h6.8788
				c2.969,0,5.5265-0.9113,5.5265-4.3213c0-2.7045-1.999-4.0567-5.5265-4.0567h-6.8788V34.7208z"/>
			<path fill="#1C3649" d="M88.6282,15.4367h2.9397l7.2609,18.4022l7.2315-18.4022h2.9396v20.9891h-1.999V18.2882h-0.0588
				l-7.1727,18.1376h-1.8814l-7.2021-18.1376h-0.0588v18.1376h-1.999V15.4367z"/>
		</g>
		<path fill="#1C3649" d="M117.7895,15.4212h9.8772c3.9979,0,6.7024,1.2934,6.7024,5.2032c0,2.0871-0.9995,3.4688-2.8515,4.3801
			c2.5869,0.7349,3.8509,2.7045,3.8509,5.3208c0,4.2625-3.6158,6.0851-7.4079,6.0851h-10.1712V15.4212z M122.4047,23.9168h4.674
			c1.6462,0,2.8221-0.7349,2.8221-2.4987c0-1.9696-1.5286-2.4105-3.1748-2.4105h-4.3213V23.9168z M122.4047,32.8239h4.9386
			c1.7932,0,3.41-0.5879,3.41-2.7633c0-2.1459-1.3228-2.9984-3.3218-2.9984h-5.0268V32.8239z"/>
		<path fill="#1C3649" d="M137.4009,15.4212h4.1743v20.9891h-4.1743V15.4212z"/>
		<path fill="#1C3649" d="M158.2912,36.4103h-3.9685v-2.1165h-0.0882c-1.0583,1.7344-2.8808,2.5281-4.6446,2.5281
			c-4.4389,0-5.5559-2.4987-5.5559-6.2614v-9.3481h4.1743v8.5838c0,2.4987,0.7055,3.7334,2.6751,3.7334
			c2.2635,0,3.2336-1.264,3.2336-4.3507v-7.9664h4.1743V36.4103z"/>
		<path fill="#1C3649" d="M164.4242,29.8255c0.1176,2.6751,1.3816,3.8509,3.7334,3.8509c1.6756,0,3.0278-1.0289,3.2924-1.9696
			h3.6746c-1.1759,3.6158-3.6746,5.115-7.114,5.115c-4.7916,0-7.7607-3.2924-7.7607-7.9958c0-4.5565,3.1454-8.0252,7.7607-8.0252
			c5.1738,0,7.7019,4.3507,7.3785,9.0247H164.4242z M171.2148,27.1798c-0.3822-2.1165-1.2934-3.2336-3.3218-3.2336
			c-2.7045,0-3.3806,2.0577-3.4688,3.2336H171.2148z"/>
		<path fill="#1C3649" d="M177.5497,21.2123h3.9391v2.0577h0.0588c1.0877-1.558,2.6457-2.4693,4.6446-2.4693
			c1.9108,0,3.6158,0.6761,4.4388,2.5281c0.9113-1.3228,2.4693-2.5281,4.5858-2.5281c3.2336,0,5.5559,1.4992,5.5559,5.4383v10.1712
			h-4.1743v-8.6132c0-2.0284-0.1764-3.704-2.5575-3.704c-2.3517,0-2.7927,1.9696-2.7927,3.8509v8.4662h-4.1743v-8.525
			c0-1.7638,0.1176-3.7921-2.5281-3.7921c-0.8231,0-2.8221,0.5291-2.8221,3.4982v8.8189h-4.1743V21.2123z"/>
		<path fill="#1C3649" d="M207.491,18.8606h-4.1743v-3.4394h4.1743V18.8606z M203.3167,21.2123h4.1743v15.198h-4.1743V21.2123z"/>
		<path fill="#1C3649" d="M214.4572,28.4145l-4.9974-7.2021h4.7622l2.6751,3.9685l2.6457-3.9685h4.6152l-4.9974,7.1139l5.6147,8.084
			h-4.7622l-3.1748-4.7916l-3.1748,4.7916h-4.674L214.4572,28.4145z"/>
	</g>
	<g>
		<path fill="#1C3649" d="M15.8972,26.1783c0,1.9368,0.3791,3.8151,1.1267,5.5826c0.7223,1.7078,1.7567,3.2418,3.0743,4.5594
			c0.2892,0.2892,0.5889,0.5648,0.8985,0.8264l0.0052-21.9401c-0.3113,0.2628-0.613,0.5389-0.9037,0.8296
			c-1.3176,1.3176-2.3519,2.8516-3.0743,4.5594C16.2762,22.3632,15.8972,24.2415,15.8972,26.1783z"/>
		<path fill="#00B29F" d="M40.3823,16.0362c-1.3176-1.3176-2.8516-2.3519-4.5594-3.0743c-1.7676-0.7476-3.6458-1.1267-5.5826-1.1267
			c-1.6892,0-3.3338,0.2884-4.8994,0.8581L44.3681,23.684c-0.1853-1.0584-0.4897-2.091-0.9116-3.0883
			C42.7342,18.8878,41.6999,17.3538,40.3823,16.0362z"/>
		<path fill="#00B29F" d="M23.5775,13.4729c-0.0034,0.0018-0.0067,0.0036-0.0101,0.0054l6.9918,12.1101h14.0122
			c-0.0062-0.1535-0.0147-0.3065-0.0256-0.4592L23.9989,13.2609C23.8572,13.3295,23.7166,13.3999,23.5775,13.4729z"/>
		<path fill="#6AA3D8" d="M44.5716,26.7611l0-0.0003H30.5493v-0.0021l-6.975,12.1237c0.0004,0.0002,0.0008,0.0004,0.0012,0.0006
			c0.1371,0.0719,0.2755,0.1416,0.4152,0.2093L44.546,27.2217C44.557,27.0686,44.5655,26.915,44.5716,26.7611z"/>
		<path fill="#6AA3D8" d="M35.8228,39.3947c1.7078-0.7224,3.2418-1.7567,4.5594-3.0743c1.3176-1.3176,2.3519-2.8516,3.0743-4.5594
			c0.4226-0.9992,0.7274-2.0338,0.9126-3.0943l-19.0356,10.994c1.5677,0.5715,3.2149,0.8607,4.9067,0.8607
			C32.177,40.5213,34.0553,40.1423,35.8228,39.3947z"/>
		<path fill="#1C3649" d="M29.5372,26.1746l0.0007-0.0012l-0.0014,0.0008l-6.9708-12.1164
			c-0.0012,0.0008-0.0024,0.0015-0.0035,0.0023c-0.0491,0.0312-0.3975,0.2608-0.3975,0.2614l-0.0057,23.7097
			c0.1272,0.0869,0.2558,0.1719,0.3858,0.2546l0.0002,0.0001L29.5372,26.1746z"/>
		<polygon fill="#90908F" points="30.5493,26.7569 30.5493,26.7587 30.5501,26.7573 		"/>
		<path fill="#00B29F" d="M30.2402,10.7288c7.927,0,14.4595,5.9701,15.3468,13.6592c0.0248,0.2145,0.045,0.4305,0.0609,0.6476
			c0.0001,0.0019,0.0003,0.0039,0.0004,0.0059l7.071-12.2473L45.3326,0H30.5591l-7.0963,12.2911
			c0.2165-0.1058,0.4357-0.2068,0.6577-0.3026C25.9971,11.1781,28.0662,10.7288,30.2402,10.7288z"/>
		<polygon fill="#90908F" points="23.7693,40.564 23.7696,40.5638 23.4894,40.0785 23.4888,40.0782 		"/>
		<path fill="#6AA3D8" d="M45.6505,27.2837c0,0.0006-0.0001,0.0013-0.0001,0.0019c-0.0161,0.2271-0.0368,0.4529-0.0626,0.6772
			c-0.8847,7.692-7.4185,13.665-15.3475,13.665c-2.1767,0-4.2481-0.4504-6.1265-1.2627c-0.2106-0.0911-0.4187-0.1866-0.6243-0.2867
			l7.0847,12.271h14.7735l7.3867-12.7942L45.6505,27.2837z"/>
		<path fill="#1C3649" d="M21.6077,13.3637H7.3867L0,26.1579l7.3867,12.7942h14.1612c-0.0018-0.0012-0.0036-0.0025-0.0054-0.0037
			c-0.1849-0.1262-0.3672-0.2561-0.5462-0.39c-3.7672-2.8174-6.2056-7.314-6.2056-12.3801c0-5.0687,2.441-9.5673,6.2115-12.3844
			C21.2004,13.6458,21.4023,13.5023,21.6077,13.3637z"/>
	</g>
	<g>
		<path fill="#1C3649" d="M225.1099,21.2462h1.8193v0.3399h-0.7145v1.9075h-0.3934v-1.9075h-0.7114V21.2462z"/>
		<path fill="#1C3649" d="M227.1746,21.2462h0.554l0.6201,1.7595h0.0063l0.6043-1.7595h0.5477v2.2474h-0.3745v-1.7343h-0.0063
			l-0.6232,1.7343h-0.3242l-0.6232-1.7343h-0.0063v1.7343h-0.3746V21.2462z"/>
	</g>
</g>
</svg>
