<svg id="Layer_1" data-name="Layer 1" xmlns="http://www.w3.org/2000/svg" viewBox="0 0 2492.05 437.1"><defs><style>.cls-1{fill:#201c1d;}.cls-2{fill:#f7a80d;}.cls-3{fill:#f6bd3a;}.cls-4{fill:#eb8c23;}.cls-5{fill:#e35a2b;}.cls-6{fill:#ef6639;}.cls-7{fill:#a6a7a9;}.cls-8{fill:#75787d;}.cls-9{fill:#f7991f;}.cls-10{fill:#f15823;}.cls-11{fill:#8e714e;}.cls-12{fill:#442d22;}.cls-13{fill:#fff;}.cls-14{fill:#a6a385;}.cls-15{fill:#499d4a;}.cls-16{fill:#58aa50;}.cls-17{fill:#0dadea;}.cls-18{fill:#00adef;}.cls-19{fill:#1c3649;}.cls-20{fill:#00b29f;}.cls-21{fill:#6aa3d8;}.cls-22{fill:#90908f;}.cls-23{fill:#e25a1c;}.cls-24{fill:#3c3a3e;}.cls-25{fill:#e8762d;}.cls-26{fill:#c72037;}.cls-27{fill:#5b879b;}.cls-28{fill:#5c6692;}.cls-29{fill:#eb9129;}.cls-30{fill:#1f457e;}.cls-31{fill:#7199a6;}</style></defs><title>ensemble</title><path class="cls-1" d="M192.38,78.8c-11.19,0-23.68,4.29-26.29,18.46a2,2,0,0,0,1.68,2.42l11.47,1.4c1-.09,1.77-1.21,2-2.33.93-4.85,4.94-7.18,9.51-7.18,2.42,0,5.13.84,6.53,3.08,1.68,2.52,1.49,5.87,1.49,8.67V105c-6.81.75-15.76,1.21-22.1,4.1-7.37,3.26-12.49,9.88-12.49,19.67,0,12.49,7.65,18.74,17.53,18.74,8.3,0,13-2,19.39-8.67,2.14,3.17,2.8,4.66,6.71,7.93a2.4,2.4,0,0,0,2.7-.28v.19c2.33-2.14,6.62-6.06,9-8.11a2.31,2.31,0,0,0,0-3.17c-2.14-3.08-4.38-5.5-4.38-11.19V105.47c0-7.93.65-15.29-5-20.79-4.48-4.38-12-5.87-17.72-5.87Zm153.94,0c-11.19,0-23.68,4.29-26.29,18.46a2,2,0,0,0,1.68,2.42l11.47,1.4c1-.09,1.77-1.21,2-2.33,1-4.85,4.94-7.18,9.51-7.18,2.42,0,5.13.84,6.53,3.08,1.68,2.52,1.4,5.87,1.4,8.67V105c-6.81.75-15.57,1.21-22,4.1-7.37,3.26-12.49,9.88-12.49,19.67,0,12.49,7.65,18.74,17.53,18.74,8.3,0,13-2,19.39-8.67,2.14,3.17,2.8,4.66,6.71,7.93a2.25,2.25,0,0,0,2.7-.28v.19c2.33-2.14,6.62-6.06,9-8.11a2.31,2.31,0,0,0,0-3.17c-2.14-3.08-4.38-5.5-4.38-11.19V105.47c0-7.93.56-15.29-5.22-20.79C359.37,80.3,352,78.8,346.32,78.8Zm-86.62.56c-7.18,0-12.59,3.64-15.38,11.47h-.19V82.72A2.39,2.39,0,0,0,242,80.58H231a2.43,2.43,0,0,0-2.33,2.33v61.82a2.39,2.39,0,0,0,2.14,2.14h11.75a2.37,2.37,0,0,0,2.33-2.33V111.72c0-7.18-.37-17,8.11-17,8.3,0,7.18,10.07,7.18,17v32.82a2.34,2.34,0,0,0,2.14,2.33h11.75a2.37,2.37,0,0,0,2.33-2.33V111.72c0-3.54-.19-8.67,1-11.75a7.91,7.91,0,0,1,7-5.22c3.36,0,6,1.21,6.9,5.31.56,2.52.28,9,.28,11.56v32.82a2.34,2.34,0,0,0,2.14,2.33h11.75a2.37,2.37,0,0,0,2.33-2.33V105.38c0-6.62.65-14.17-3.08-19.39a16.51,16.51,0,0,0-13.61-6.71A16.71,16.71,0,0,0,274.9,90.74c-3.17-7.74-7.83-11.38-15.2-11.38Zm199.9,0c-17,0-26.39,14.92-26.39,34.22,0,19.11,9.32,34.5,26.39,34.5,16.41,0,26.85-15,26.85-33.94,0-19.49-9.51-34.78-26.85-34.78Zm66.95,0c-8.11,0-12.77,4.1-16,12.49h-.19V82.35a2.32,2.32,0,0,0-2.14-1.68H497.37a2.39,2.39,0,0,0-2.33,2v61.82a2.41,2.41,0,0,0,2.14,2.33h11.56a2.43,2.43,0,0,0,2.33-2.33V111.16a29.13,29.13,0,0,1,2-11.75,7.45,7.45,0,0,1,6.71-4.85c8.11,0,7.37,9.88,7.37,16.6v33.57a2.29,2.29,0,0,0,2.14,2H541a2.39,2.39,0,0,0,2.33-2v-39c0-6,0-14.27-3.08-19.21-3.26-5.13-8.39-7.18-13.71-7.18ZM385.48,80.48a2.16,2.16,0,0,0-2.14,2.33v8.86A2.27,2.27,0,0,0,385.48,94h20.14l-23,34a11.23,11.23,0,0,0-1.49,6.06v9c0,1.31,1.4,2.7,2.7,2a43.46,43.46,0,0,1,40.75-.19c1.4.75,2.89-.65,2.89-2v-9.51a4,4,0,0,0-2.14-3.36c-6.71-3.92-14.55-5-22-4.85l20-29.28c1.86-2.61,2.89-4.2,2.89-5.5V82.81a2.21,2.21,0,0,0-2.14-2.33h-38.6ZM459.6,92c3.73,0,6.43,1.68,7.83,6,1.49,4.94,1.68,11.1,1.68,16.32,0,7.93-.37,21.07-9.51,21.07s-9.14-16.22-9.14-23.78S450.93,92,459.6,92Zm-261,22.56v2.61c0,4.66.19,8.67-2.14,12.87-1.86,3.36-4.76,5.5-8.11,5.5-4.48,0-7.18-3.64-7.18-8.86C181.29,116.47,190.14,114.61,198.63,114.61Zm153.94,0v2.61c0,4.66.19,8.67-2.14,12.87-1.86,3.36-4.76,5.5-8.11,5.5-4.48,0-7.18-3.64-7.18-8.86C335.13,116.47,344.08,114.61,352.57,114.61Z" transform="translate(-7.95 -0.11)"/><path d="M428.74,148.83v8.86h6v-8.86Zm-172.68,1.59v63h5.5v-5.69a14.23,14.23,0,0,0,4.1,5,9.37,9.37,0,0,0,5.5,1.68c4,0,7.55-2.05,10.54-6.25s4.57-10.26,4.57-18a37.73,37.73,0,0,0-2-12.87,17.47,17.47,0,0,0-5.31-7.93,11.84,11.84,0,0,0-7.46-2.7,9.75,9.75,0,0,0-5.31,1.49,13.93,13.93,0,0,0-4.1,4.76V150.41Zm56.5,14.73c-4.1,0-7.46,1.21-9.79,3.64a13.18,13.18,0,0,0-3.54,9.51,12.53,12.53,0,0,0,1.4,6,11.63,11.63,0,0,0,3.64,4.29,46.61,46.61,0,0,0,9.32,4c3.17,1,5.13,1.86,6,2.61a5.05,5.05,0,0,1,1.86,4.1,7.18,7.18,0,0,1-2.14,5.22c-1.4,1.4-3.36,2-6,2a8.37,8.37,0,0,1-6.25-2.33c-1.59-1.59-2.42-3.92-2.7-7.18l-6,1.21c1.31,9.79,6.25,14.64,14.64,14.64,4.48,0,7.93-1.31,10.54-4a15,15,0,0,0,4-10.72,13.53,13.53,0,0,0-1.21-6.06,10.9,10.9,0,0,0-3.36-4c-1.49-1-4.66-2.33-9.6-4a30.66,30.66,0,0,1-6.43-2.7,4.87,4.87,0,0,1-1.86-4A5.4,5.4,0,0,1,307,173c1.31-1.12,3.17-1.68,5.78-1.68,4.57,0,7.09,2.52,7.65,7.46l5.78-.93a19.23,19.23,0,0,0-2.14-7.37,11.53,11.53,0,0,0-4.57-4.1,17.86,17.86,0,0,0-6.9-1.21Zm36.46,0a14.46,14.46,0,0,0-11.93,6.06c-3.17,4.1-4.57,10.16-4.57,18,0,7.55,1.49,13.52,4.57,17.53a14.42,14.42,0,0,0,12,6,14.06,14.06,0,0,0,9.88-3.64c2.7-2.52,4.66-6.15,5.69-11l-6.06-1c-1.77,6.25-4.94,9.32-9.51,9.32a8.55,8.55,0,0,1-7.18-3.82c-2-2.61-3.08-6.43-3.36-11.56h26.29v-2.14c0-7.74-1.49-13.52-4.57-17.53s-6.71-6.15-11.28-6.15Zm36.18,0a5.51,5.51,0,0,0-3.82,1.49c-1.12,1-2.42,3.17-3.82,6.43v-7h-5.31v45.69h6V188a39.15,39.15,0,0,1,1-9.51,8.19,8.19,0,0,1,2.33-4,5.17,5.17,0,0,1,3.54-1.4,7.16,7.16,0,0,1,4.29,1.68l2-7.18a10.34,10.34,0,0,0-6.15-2.42Zm73,0a13.71,13.71,0,0,0-11.56,6c-3,4-4.57,9.88-4.57,17.9,0,7.83,1.59,13.8,4.57,17.9s6.71,6,11.28,6a12.88,12.88,0,0,0,9.79-4.29c2.7-2.89,4.38-7.09,5-12.49l-5.78-.93c-.47,3.92-1.49,6.71-3.08,8.58a7.27,7.27,0,0,1-5.78,2.7,8.3,8.3,0,0,1-7.18-4.1c-1.86-2.8-2.7-7.18-2.7-13.43,0-6.06.93-10.35,2.89-13.15s4.38-4.29,7.37-4.29a6.44,6.44,0,0,1,5,2.33c1.4,1.49,2.33,3.92,2.89,7l5.78-1.21c-.65-4.85-2.24-8.39-4.76-10.82a12.58,12.58,0,0,0-9.23-3.64Zm34,0a14.46,14.46,0,0,0-11.93,6.06c-3.17,4.1-4.57,10.16-4.57,18,0,7.55,1.49,13.52,4.57,17.53a14.42,14.42,0,0,0,12,6,14.06,14.06,0,0,0,9.88-3.64c2.7-2.52,4.66-6.15,5.69-11l-6.06-1c-1.77,6.25-4.85,9.32-9.32,9.32a9,9,0,0,1-7.37-3.82c-2-2.61-3.08-6.43-3.36-11.56h26.29v-2.14c0-7.74-1.49-13.52-4.57-17.53s-6.71-6.15-11.28-6.15Zm35.24,0q-6.29,0-9.79,3.64a13.18,13.18,0,0,0-3.54,9.51,13.66,13.66,0,0,0,1.21,6,11.63,11.63,0,0,0,3.64,4.29,46.61,46.61,0,0,0,9.32,4c3.17,1,5.31,1.86,6.06,2.61a5.05,5.05,0,0,1,1.86,4.1,7.18,7.18,0,0,1-2.14,5.22c-1.4,1.4-3.36,2-6,2a8.37,8.37,0,0,1-6.25-2.33c-1.59-1.59-2.52-3.92-2.89-7.18l-6,1.21c1.31,9.79,6.25,14.64,14.64,14.64,4.48,0,8.11-1.31,10.72-4a15,15,0,0,0,4-10.72,13.53,13.53,0,0,0-1.21-6.06,10.53,10.53,0,0,0-3.54-4c-1.49-1-4.57-2.33-9.51-4-3.54-1.21-5.87-2.14-6.53-2.7a4.87,4.87,0,0,1-1.86-4,5.8,5.8,0,0,1,2-4.29,8.73,8.73,0,0,1,5.78-1.68c4.57,0,7.09,2.52,7.65,7.46l5.78-.93a19.23,19.23,0,0,0-2.14-7.37,11.4,11.4,0,0,0-4.57-4.1,16,16,0,0,0-6.71-1.21Zm-136.13.93,13.24,45.69h5.69l13.24-45.69h-6.06l-7.83,28c-.93,3.36-1.77,6.25-2.33,8.67-.65-3.08-1.31-6.25-2.14-9.32l-7.65-27.32Zm37.39,0v45.69h6V166.08ZM233,166.73c-4.76,0-8.48,2.14-11.56,6.25s-4.76,10.16-4.76,18c0,7.55,1.49,13.43,4.57,17.44a14.51,14.51,0,0,0,12,6.06,13.74,13.74,0,0,0,9.79-3.82c2.61-2.52,4.48-6.15,5.5-11l-6-.93c-1.77,6.25-4.85,9.32-9.32,9.32a8.66,8.66,0,0,1-7.18-3.82c-2-2.61-3.08-6.43-3.36-11.56H248.7l.19-2.14c0-7.74-1.59-13.61-4.57-17.72s-6.81-6.06-11.28-6.06Zm-67,1,10.72,45.69H183l7-35.15,1.21,7.83,5.69,27.32h6.06l10.82-45.69H208l-6,26.39-2,8.86-1.86-8.86L193,167.75H187l-5.5,26.76L179.61,204l-2.14-9.79L172,167.85l-6-.09Zm379.95.47v2.14h5.78v15.29h2.33V170.36h5.78v-2.14Zm16.22,0v17.44h2.14V170.83l5,14.82h2.14l5-14.55v14.55h2.33V168.22h-3.17l-4.1,12.21c-.37,1.21-.75,2.14-.93,2.7l-.93-2.61-4.1-12.4-3.45.09Zm-213.33,3.26c3,0,5.41,1.4,7.37,4.29,1.31,2,2.14,4.94,2.42,8.86H339a16.31,16.31,0,0,1,3.17-9.51C344.08,172.7,346.23,171.48,348.84,171.48Zm143.22,0c3,0,5.41,1.4,7.37,4.29,1.31,2,2.14,4.94,2.42,8.86H482.17a16.31,16.31,0,0,1,3.17-9.51C487.2,172.79,489.44,171.48,492.05,171.48Zm-259,1.68c2.89,0,5.31,1.4,7.18,4.29,1.31,2,2.14,4.94,2.42,8.86H223.24c.19-4,1.21-7.27,3.08-9.6A8,8,0,0,1,233,173.16Zm37.86,0c2.61,0,4.94,1.49,6.71,4.29s2.61,7.18,2.61,13.15-.84,10.16-2.7,13.15-4.1,4.38-6.53,4.38a6.9,6.9,0,0,1-4.85-1.86,11.62,11.62,0,0,1-3.36-5.31c-.84-2.33-1.21-6-1.21-10.72,0-5.59,1-9.7,2.89-12.68s4-4.38,6.43-4.38Z" transform="translate(-7.95 -0.11)"/><path class="cls-2" d="M80.4,124.77l-22.75,9.79,21.07,9,24.43-9ZM46.18,136.89l-.75,44,33.29,14.64V149.85l-32.54-13Zm68.44,0L84.5,148.36v43.08l30.12-12.21V136.89ZM150.52.11,127.58,9.9l21.26,9,24.43-9L150.52.11ZM118.72,13.16v44l28.44,8.21.93-40Zm63.5,2.42L155.37,27.06V70.23L182.22,58ZM42.92,62,20.17,71.81l21.07,9,24.43-9L42.92,62ZM8.7,74.23l-.75,44,33.29,14.64V87.2Zm68.44,0L47,85.7v43.08l30.12-12.21Zm39.07-13.8L93.45,70.23l21.07,9,24.43-9L116.2,60.44ZM82,72.65l-.75,44,33.29,14.64V85.61Zm68.44,0L120.31,84.12v43.08L150.42,115ZM222,.11,199.28,9.9l21.07,9,24.43-9ZM187.91,12.32l-.75,44L220.45,71V25.28l-32.54-13Zm68.34,0L226.13,23.79V66.87l30.12-12.21V12.32Z" transform="translate(-7.95 -0.11)"/><path class="cls-3" d="M1533.56,366.64l15.7-9.11,15.52,9.11-15.52,8.93-15.7-8.75v-.18Z" transform="translate(-7.95 -0.11)"/><path class="cls-3" d="M1486.37,339.66l62.89-35.73L1596,330.55l-15.52,27-31.22-17.87-47.19,26.8Z" transform="translate(-7.95 -0.11)"/><path class="cls-4" d="M1533.56,402.28V384.41l15.52-8.93,15.7-8.93v17.87l-15.52,8.93v17.87l-15.7,9.11v-18Zm0-35.64-15.7-8.93-15.7,8.75V348.59l47.19-26.8v35.73l-15.79,9.11Zm46.74-18v-8.93l15.7-9.11.18,17.87-15.7,9.11Z" transform="translate(-7.95 -0.11)"/><path class="cls-5" d="M1517.77,410.85V357.71l15.52-8.75.18,17.68,15.7,8.75v18l-15.7-8.3v35.28l-15.7-9.56Zm-23.64-49.08-7.76-4.69v-17.5l15.7,8.93v17.87l-7.94-4.6Zm55.13-22.11V321.8l31,17.87.18,17.87-31.22-17.87Z" transform="translate(-7.95 -0.11)"/><path class="cls-6" d="M1637.05,344.08V411h-11.73V344.08h-22.83V332.53H1660v11.55Z" transform="translate(-7.95 -0.11)"/><path class="cls-6" d="M1698.86,368.44a38.4,38.4,0,0,1,1,8.93l-38,11.28c.27,2.8.18,1.71,1.08,3.7a15.46,15.46,0,0,0,3.34,5,13.3,13.3,0,0,0,4.51,2.89,14.47,14.47,0,0,0,5.14,1,18.43,18.43,0,0,0,6.77-1.26,22.48,22.48,0,0,0,6-3.52l6.86,7.4a29.23,29.23,0,0,1-8.75,5.68,29.74,29.74,0,0,1-11.55,2,24.57,24.57,0,0,1-9.83-2,23.65,23.65,0,0,1-8.12-6,28.76,28.76,0,0,1-5.5-9.65,38.54,38.54,0,0,1-2-13,42.79,42.79,0,0,1,1.89-13.26,28.54,28.54,0,0,1,5.23-9.56,21.84,21.84,0,0,1,8.12-5.86,26.39,26.39,0,0,1,10.47-2,24.33,24.33,0,0,1,10.92,2.35,22.25,22.25,0,0,1,7.76,6.41,25.93,25.93,0,0,1,4.69,9.47Zm-11,2.62a13.62,13.62,0,0,0-2.71-6,9.25,9.25,0,0,0-4.24-3.16,15.13,15.13,0,0,0-6.14-.9c-3.88.18-8.12,1.53-10.29,4.51s-2.8,7.94-2.71,13.35Zm53.69,39.34V377.11c0-6-1.08-10.2-3.16-12.54s-5.14-3.61-8.93-3.61-6.86,1.26-8.93,3.88-3.16,6.32-3.16,11.1v34.38h-11.55V351.48h11.55v5.59a15,15,0,0,1,6.23-5.05,20.84,20.84,0,0,1,8.57-1.8c6.86,0,12.09,2.17,15.61,6.59s5.32,11,5.32,19.76v33.75l-11.55.09Zm59-15.52a17.27,17.27,0,0,1-1.8,8.21,16.26,16.26,0,0,1-4.87,5.32,19,19,0,0,1-7,2.89,36.58,36.58,0,0,1-20.48-1.26,42.34,42.34,0,0,1-10.47-5.41l5.23-8.75a29.52,29.52,0,0,0,8.57,4.33,26.7,26.7,0,0,0,8.57,1.44c7.22,0,10.74-2.17,10.74-6.5,0-2.26-1.17-4.06-3.61-5.41a96.22,96.22,0,0,0-10-4.51,69.58,69.58,0,0,1-8-3.61,26.28,26.28,0,0,1-5.41-4,13.31,13.31,0,0,1-3-4.78,18,18,0,0,1-.9-6.14,15.43,15.43,0,0,1,1.44-6.95,14.05,14.05,0,0,1,4.15-5.05,19.22,19.22,0,0,1,6.41-3.07,32.08,32.08,0,0,1,8-1,34.07,34.07,0,0,1,10.83,1.8,33.36,33.36,0,0,1,9.11,4.69L1793,366a27,27,0,0,0-7.31-3.79,25.24,25.24,0,0,0-7.94-1.26c-2.8,0-4.87.54-6.14,1.53a4.67,4.67,0,0,0-1.89,3.88,5.35,5.35,0,0,0,.45,2.08,6.51,6.51,0,0,0,1.71,2,19.86,19.86,0,0,0,3.34,2.08,56.42,56.42,0,0,0,5.41,2.44c3.25,1.26,6.14,2.53,8.66,3.61a29.38,29.38,0,0,1,6.23,3.88,13.18,13.18,0,0,1,3.79,5.14,20.32,20.32,0,0,1,1.26,7.31Zm53.69-13.53a39.46,39.46,0,0,1-2,13.08,28.49,28.49,0,0,1-5.59,9.74,24.91,24.91,0,0,1-8.39,6,27.19,27.19,0,0,1-10.56,2.08,23.78,23.78,0,0,1-18.5-8.39,28,28,0,0,1-5.41-9.65,39.31,39.31,0,0,1-2-12.54,38.37,38.37,0,0,1,2-12.9,27.48,27.48,0,0,1,5.59-9.65,23.73,23.73,0,0,1,8.3-6,26.3,26.3,0,0,1,10.38-2.08,24.86,24.86,0,0,1,18.86,8.3,28.32,28.32,0,0,1,5.5,9.56,41.06,41.06,0,0,1,1.8,12.45Zm-11.64.36c0-6-1.35-10.83-4-14.44a13,13,0,0,0-11-5.32,12.09,12.09,0,0,0-10.38,5.32q-3.79,5.28-3.79,14.08,0,9.74,4.06,14.89a12.88,12.88,0,0,0,10.65,5.14,12.19,12.19,0,0,0,6-1.53,14.71,14.71,0,0,0,4.6-4.24,18,18,0,0,0,2.89-6.23,30.81,30.81,0,0,0,1-7.67Zm48.81-17.32a20.42,20.42,0,0,0-3.88-1.53,19.37,19.37,0,0,0-5-.54,10.12,10.12,0,0,0-8.48,3.79c-2,2.53-3.07,6.32-3.07,11.28V411h-11.55V352.2H1871v5.59a14.83,14.83,0,0,1,5.59-4.87,16.44,16.44,0,0,1,7.94-2,21.13,21.13,0,0,1,5.86.63,12,12,0,0,1,4.06,1.89l-3.07,10.92Z" transform="translate(-7.95 -0.11)"/><path class="cls-7" d="M1910.81,344.08v20.48h22.56V376.2h-22.56V411h-11.73v-78.5h50.53v11.55h-38.8ZM1951.5,411v-75.7l11.55-6V411H1951.5Zm70.56-29.69a39.46,39.46,0,0,1-2,13.08,28.49,28.49,0,0,1-5.59,9.74,24.05,24.05,0,0,1-8.39,6,27.2,27.2,0,0,1-10.56,2.08,23.78,23.78,0,0,1-18.5-8.39,28,28,0,0,1-5.41-9.65,38.9,38.9,0,0,1-2-12.54,38.37,38.37,0,0,1,2-12.9,27.48,27.48,0,0,1,5.59-9.65,24.58,24.58,0,0,1,8.3-6,26.3,26.3,0,0,1,10.38-2.08,24.86,24.86,0,0,1,18.86,8.3,28.32,28.32,0,0,1,5.5,9.56,41.07,41.07,0,0,1,1.8,12.45Zm-11.64.36c0-6-1.35-10.83-4-14.44a13,13,0,0,0-11-5.32,12.09,12.09,0,0,0-10.38,5.32q-3.79,5.28-3.79,14.08,0,9.74,4.06,14.89a12.88,12.88,0,0,0,10.65,5.14,12.19,12.19,0,0,0,6-1.53,14.71,14.71,0,0,0,4.6-4.24,18,18,0,0,0,2.89-6.23,30.81,30.81,0,0,0,1-7.67ZM2079,411h-9.83l-7.94-29.69c-.63-2.26-1.17-4.6-1.71-6.86s-1-4.24-1.26-5.68c-.45,1.89-.81,3.79-1.26,5.68-.54,2.35-1.08,4.6-1.71,6.95L2047.41,411h-9.83l-16.15-58.83h11.46l6.95,28.6c.63,2.35,1.17,4.69,1.71,7,.45,2,.81,3.88,1.26,5.86l1.44-5.86c.63-2.35,1.17-4.69,1.8-7l7.85-28.6h9.29l7.94,28.69c.63,2.35,1.17,4.69,1.71,7s1,4.24,1.44,5.77c.36-1.53.81-3.43,1.26-5.86s1-4.69,1.62-7l6.95-28.6h11.46L2079,411Z" transform="translate(-7.95 -0.11)"/><path class="cls-8" d="M1043.53,145.42c-.93.47-2.05,1.12-3,1.59a20.15,20.15,0,0,1-8.76,1.59,19.6,19.6,0,0,1-12-3.45c-6.53-4.66-9.23-12.49-9.23-19.21,0-14.17,11.56-21.07,20.89-21.07a19.84,19.84,0,0,1,9.51,2.52c4.66,3,5.78,7,6.53,9L1025.9,125l-7,.47c2.33,11.56,10.16,18.27,18.74,18.27a21.68,21.68,0,0,0,11.1-3.26l-5.22,4.94Zm-8.58-27.32c1.59-.65,2.52-1.12,2.52-2.52,0-3.73-4.2-7.83-9-7.83-3.73,0-10.44,2.8-10.44,12.77,0,1.59.19,3.26.19,4.85C1018.26,125.28,1034.95,118.1,1034.95,118.1Zm-26.85,29.37,3.45-2.05c-1.59-.19-3-.19-4.66-.47-3-.19-3.73-.93-3.73-4.38V119.5c0-13,0-24.06.93-31,.47-3.26,1.4-3.73,4.2-5.31h-13l-7,3.26h7.18c0,4.2-.47,10-.47,14.55-.19,9.51-.47,19.67-.47,26.67v14.83c0,1.86-.47,2.05-2.52,4.85H1008v.19Zm-29.93-38.23a15.14,15.14,0,0,1,6.53,12.31c0,6.71-3.92,10-7.65,13-1.12,1.12-2.52,2.52-2.52,4.38,0,2.05,1.4,3,2.33,3.92l3.26,2.52c3.92,3.45,7.65,6.53,7.65,12.77,0,8.58-8.3,17.16-24.06,17.16-13.24,0-19.67-6.25-19.67-13,0-3.26,1.59-7.83,7-11.1,5.59-3.45,13.43-3.92,17.34-4.2a9.12,9.12,0,0,1-2.8-6.25,6.9,6.9,0,0,1,.93-3.45c-.93,0-2.05.19-3,.19-9.7,0-15-7.18-15-14.36a16.79,16.79,0,0,1,5.78-12.31c5.13-4.38,11.38-5.13,16.41-5.13h18.74L983.67,109h-5.31v.28Zm-6.43,40.56h-2.05a37,37,0,0,0-9.51,1.4c-2.05.65-7.83,3-7.83,9.51s6.25,11.1,15.94,11.1c8.76,0,13.43-4.2,13.43-10C981.62,157.17,978.63,154.65,971.73,149.81Zm2.52-17.34c2.05-2.05,2.33-5.13,2.33-6.71,0-6.53-3.92-16.88-11.56-16.88a9.09,9.09,0,0,0-6.53,3c-1.68,1.86-2.05,4.38-2.05,6.71,0,6.06,3.45,16.22,11.38,16.22A8,8,0,0,0,974.25,132.46Zm-52.77,16.13c-14.55,0-22.19-11.38-22.19-21.54,0-12,9.7-22.19,23.59-22.19,13.43,0,21.72,10.44,21.72,21.54C944.6,137,936.49,148.59,921.48,148.59ZM933,141.23a17.62,17.62,0,0,0,2.8-10.16c0-8.11-3.92-23.4-15-23.4a12.4,12.4,0,0,0-8.11,3c-3.45,3.26-4.2,7.18-4.2,11.1,0,9,4.38,23.87,15.48,23.87a10.94,10.94,0,0,0,9-4.38Zm-60,7.37c-14.55,0-22.19-11.38-22.19-21.54,0-12,9.7-22.19,23.59-22.19,13.43,0,21.72,10.44,21.72,21.54,0,10.63-8.39,22.19-23.12,22.19Zm11.28-7.37a17.62,17.62,0,0,0,2.8-10.16c0-8.11-3.92-23.4-15-23.4a12.4,12.4,0,0,0-8.11,3c-3.45,3.26-4.2,7.18-4.2,11.1,0,9,4.38,23.87,15.48,23.87a10.82,10.82,0,0,0,9-4.38Zm-39.53,4.2V135a31.6,31.6,0,0,1,.19-4.2,1.75,1.75,0,0,1,.93-1.4l2.33-2.05H830.19l-7,3.73,13-.65v13.71a26.93,26.93,0,0,1-10.91,2.05c-18.74,0-30.3-15-30.3-31.24,0-15,10.16-25.27,23.59-25.27,10.16,0,15.29,5.31,18.27,8.11l-2.05,3.45,3-.65,7.18-6.71c-1.86-1.4-4.85-3.45-11.38-5.31a49.34,49.34,0,0,0-13.24-1.86c-21.72,0-34.5,15.29-34.5,32,0,13.71,9,31,32.63,31a94.67,94.67,0,0,0,14.17-1.4l12.21-2.89Z" transform="translate(-7.95 -0.11)"/><path class="cls-9" d="M642.13,68.5v65.73L672,103.65,698.35,130l55.85-55.85V69.06a8.56,8.56,0,0,0-8.58-8.58c-21.07,0-75.24.19-95.66,0a8,8,0,0,0-7.83,8Z" transform="translate(-7.95 -0.11)"/><path class="cls-9" d="M685.21,116.71l-13.43,13.71,13.43,13.71Z" transform="translate(-7.95 -0.11)"/><path class="cls-10" d="M641.95,160v4.66a8.24,8.24,0,0,0,8.11,8.11h96.32a7.76,7.76,0,0,0,7.83-7.83V100.67l-55.85,55.85L672,130.13C672.06,130.13,642.13,160.25,641.95,160Z" transform="translate(-7.95 -0.11)"/><path class="cls-8" d="M1100,128.92h-20l-6.9,17.44h-3.73l20-49.32h2.05l19.49,49.32H1107C1106.93,146.36,1100,128.92,1100,128.92Zm-18.83-3h17.62l-6.71-17.81c-.47-1.4-1.12-3.26-2.05-5.78a29.92,29.92,0,0,1-2.05,5.78Zm61.16,20.42V122.77c0-3.73-.65-6.25-2.33-8.11s-3.92-2.52-7.18-2.52c-4.38,0-7.65,1.12-9.7,3.26-2.05,2.33-3,5.78-3,10.63v20.14h-3.26V109.81h2.8l.65,5.13h.19c2.33-3.73,6.71-5.78,12.77-5.78,8.3,0,12.49,4.38,12.49,13.43v23.78Zm34.5,0-.93-5.78h-.19a20.83,20.83,0,0,1-5.78,5.13,15.57,15.57,0,0,1-7,1.4c-3.73,0-6.53-.93-8.3-2.8-2.05-1.86-3-4.38-3-7.65a9.53,9.53,0,0,1,4.38-8.3c3-2.05,7.18-3,13-3.26l7-.19v-2.33c0-3.45-.65-6.06-2.05-7.83s-3.73-2.52-7-2.52a23.22,23.22,0,0,0-10.63,2.8l-1.12-3a28.14,28.14,0,0,1,11.84-2.8c3.92,0,7,1.12,9,3.26s3,5.31,3,9.7v24.15ZM1163.43,144c3.92,0,7-1.12,9.23-3.26s3.45-5.31,3.45-9.23V127.8l-6.53.19c-5.13.19-8.76,1.12-10.91,2.33a7.17,7.17,0,0,0-3.26,6.25c0,2.33.65,4.2,2.05,5.31A8.5,8.5,0,0,0,1163.43,144Zm29.93,2.33h-3.26V94h3.26Zm4.57-36.64h3.45l7.65,20.61a131.89,131.89,0,0,1,4.38,12.77h.19c.93-2.8,2.52-7.18,4.66-13l7.65-20.42h3.45l-16.41,42.61a53.2,53.2,0,0,1-3.26,7,8.13,8.13,0,0,1-3.26,2.8,8.5,8.5,0,0,1-4.38.93,13.13,13.13,0,0,1-4.2-.65v-3a12.91,12.91,0,0,0,4.2.47,6.37,6.37,0,0,0,3-.65,6.83,6.83,0,0,0,2.33-2.52,32.23,32.23,0,0,0,2.52-5.31c.93-2.33,1.59-4.2,1.86-4.85l-13.8-36.83ZM1248.19,144a33.9,33.9,0,0,0,5.59-.47v2.8a20,20,0,0,1-5.59.65c-3.26,0-5.59-.93-7.18-2.52s-2.33-4.38-2.33-8.11V112.79h-5.59v-1.86l5.31-1.59L1240,101h1.59v8.76h10.63v3h-10.63v23.12c0,2.8.47,4.85,1.4,6.25a8.69,8.69,0,0,0,5.22,1.86Zm10.26-44.48c0-2.05.65-3.26,2.05-3.26a1.66,1.66,0,0,1,1.59.93,4.49,4.49,0,0,1,0,4.66,1.83,1.83,0,0,1-1.59.93C1259.09,102.81,1258.44,101.88,1258.44,99.55Zm3.92,46.81h-3.26V109.81h3.26ZM1285,147c-5.31,0-9.23-1.59-12.31-4.85s-4.38-7.83-4.38-13.89,1.59-10.91,4.66-14.17,7.18-5.13,12.77-5.13a24,24,0,0,1,9,1.59l-.93,3a26.11,26.11,0,0,0-8.3-1.59c-4.38,0-7.83,1.4-10.16,4.2s-3.45,6.71-3.45,12c0,4.85,1.12,8.76,3.45,11.56a12,12,0,0,0,9.7,4.2,23,23,0,0,0,9.23-1.86v3c-2.61,1.49-5.59,2-9.32,2Zm39.35-10.16a8.7,8.7,0,0,1-3.73,7.65c-2.52,1.86-6.06,2.52-10.63,2.52-4.85,0-8.76-.65-11.56-2.33v-3.73a25.75,25.75,0,0,0,11.56,2.8c3.73,0,6.25-.65,8.3-1.86a5.07,5.07,0,0,0,2.8-4.85,5.38,5.38,0,0,0-2.33-4.66,26.33,26.33,0,0,0-7.37-3.73,42.16,42.16,0,0,1-7.65-3.45,10.87,10.87,0,0,1-3.26-3.26,9.24,9.24,0,0,1-1.12-4.38,7.52,7.52,0,0,1,3.45-6.53c2.33-1.59,5.59-2.33,9.7-2.33A27,27,0,0,1,1323.9,111l-1.12,3c-3.73-1.4-7-2.33-10-2.33a15.87,15.87,0,0,0-7.18,1.4,4.23,4.23,0,0,0-2.52,4.2,5.89,5.89,0,0,0,2.05,4.66c1.4,1.12,3.92,2.33,7.83,3.92a33.58,33.58,0,0,1,7.18,3.26,14.45,14.45,0,0,1,3.45,3.26A11.58,11.58,0,0,1,1324.36,136.84Z" transform="translate(-7.95 -0.11)"/><path class="cls-11" d="M499.3,349.16c-.5.08-.91,1.16-.91,1.74-.08,3.81-.17,13.9-.17,20.77,0,.17.25.58.58.58,1.41.08,4.88.17,7.78.17,4.06,0,6.46-.58,7.78-1.16,3.39-1.74,5-5.46,5-9.52,0-9.19-6.46-12.74-16.06-12.74a11.68,11.68,0,0,0-4.06.17Zm24.58,42.54c0-9.43-7-14.65-19.53-14.65-.58,0-4.55-.08-5.54.08-.25.08-.66.25-.66.58,0,6.79-.08,17.54.17,21.68.17,1.82,1.49,4.39,3.14,5.13,1.74.91,5.63,1.16,8.28,1.16,7.61,0,14.15-4.22,14.15-14Zm-43.95-47.75c.91,0,3.81.25,11.09.25,7,0,12.5-.17,19.2-.17,8.28,0,19.7,3,19.7,15.31,0,6.12-4.3,10.92-9.93,13.32-.25.08-.25.25,0,.41,8,2,15.06,7,15.06,16.3,0,9.1-5.71,14.9-14,18.54-5,2.15-11.34,3-17.71,3-4.88,0-17.88-.58-25.08-.41-.74-.25.66-3.72,1.32-4.3a17.08,17.08,0,0,0,4.88-.74c2.57-.66,2.81-1.41,3.23-5.3.17-3.31.17-15.14.17-23.5,0-11.5.08-19.28,0-23.09-.08-3-1.16-3.89-3.23-4.47-1.66-.25-4.3-.66-6.46-.91-.41-.66,1.16-3.89,1.74-4.22Zm-54.87,59.17c2.32,1.82,6.79,2.57,10.76,2.57,5.13,0,10.26-.91,15.23-5.46s8.52-11.59,8.52-22.84c0-10.76-4.06-19.53-12.5-24.66-4.72-3-10.84-4.22-17.88-4.22a14,14,0,0,0-5.3.66,3,3,0,0,0-.91,1.49c-.17,1.9-.17,16.55-.17,25.08,0,8.86,0,21.19.17,22.68a5.6,5.6,0,0,0,2.07,4.72Zm-21.6-59.26c1.82,0,8.77.25,12.08.25,6,0,10.26-.25,21.6-.25,9.52,0,17.54,2.57,23.17,7.45,7,6,10.59,14.23,10.59,24.33,0,14.4-6.54,22.68-13.16,27.39-6.54,4.88-15.14,7.7-27.31,7.7-6.46,0-17.63-.17-26.81-.25h-.08c-.5-.83.74-4.22,1.49-4.3a16.31,16.31,0,0,0,4.39-.83c2-.74,2.4-1.82,2.65-5.3.25-6.54.17-14.48.17-23.42,0-6.37.08-18.87-.08-22.84-.25-3.31-1.74-4.22-4.55-4.72-1.41-.25-3.31-.66-6-.91-.41-.74,1.32-3.72,1.82-4.3Z" transform="translate(-7.95 -0.11)"/><path class="cls-12" d="M288.34,406.76a17.7,17.7,0,0,1-6.21-1.66,3.18,3.18,0,0,1-.74-1.49c-.17-3.31-.17-12.83-.17-19.2,0-5.13-.83-9.6-3.06-12.74a12.93,12.93,0,0,0-11-5.71c-4.22,0-9.77,2.81-14.48,6.87-.08.08-.83.74-.74-.25s.17-3.14.25-4.55a2.5,2.5,0,0,0-.66-2c-3.06,1.49-11.59,3.56-14.73,3.81-2.32.5-2.81,2.65-.5,3.39h.08a21.58,21.58,0,0,1,5.63,2.48,3,3,0,0,1,.83,2.65c.08,7.12.08,18-.17,24.08-.08,2.4-.74,3.23-2.48,3.64l.17-.08c-1.32.25-2.4.58-4,.74-.58.58-.58,3.64,0,4.3,1.08,0,6.54-.25,11.17-.25,6.29,0,9.52.25,11.09.25.66-.74.83-3.64.5-4.3a15.81,15.81,0,0,1-4.39-.66c-1.74-.41-2.15-1.24-2.32-3.23-.17-5-.17-15.72-.17-22.92a4.68,4.68,0,0,1,1.16-3.56,14.3,14.3,0,0,1,8.86-3.23,9.64,9.64,0,0,1,6.54,2.15,9.9,9.9,0,0,1,3.06,6c.5,4.06.25,12.17.25,19.2,0,3.81-.25,4.72-1.74,5.21a19.44,19.44,0,0,1-4.39.83c-.66.66-.5,3.64,0,4.3,2.73,0,6-.25,10.76-.25,5.88,0,9.68.25,11.26.25.5-.5.66-3.23.33-4.06Zm26.32-36.33c-5,0-8.19,3.89-8.19,10s2.73,13.32,10.59,13.32c1.32,0,3.81-.58,5-1.9,1.82-1.74,3.06-5.13,3.06-8.77,0-7.86-4-12.66-10.43-12.66Zm-.66,42a7.71,7.71,0,0,0-4.06,1.08c-4,2.57-5.79,5-5.79,8a8.61,8.61,0,0,0,3.31,6.87c2.73,2.4,6.54,3.56,11.42,3.56,9.68,0,14-5.21,14-10.34,0-3.64-1.82-6-5.54-7.37-2.65-1.24-7.53-1.82-13.32-1.82Zm.66,24.75c-5.79,0-10-1.24-13.57-4a12.35,12.35,0,0,1-5-9.43,7.1,7.1,0,0,1,1.9-4.72c1.08-1.16,3.31-3.31,8.77-7a.38.38,0,0,0,.25-.41.61.61,0,0,0-.41-.5c-4.47-1.74-5.79-4.47-6.21-6V405a1.44,1.44,0,0,1,.58-1.74c.66-.5,1.66-1.08,2.65-1.74a36.65,36.65,0,0,0,4.39-2.9.79.79,0,0,0,.17-.58.61.61,0,0,0-.41-.5c-6.62-2.15-10-7.12-10-14.57a14.35,14.35,0,0,1,6.12-12c2.65-2.07,9.35-4.63,13.74-4.63h.25c4.47.08,7,1.08,10.43,2.32a17.83,17.83,0,0,0,6.21.91c3.72,0,5.3-1.16,6.62-2.48a7.15,7.15,0,0,1,.41,1.9,7,7,0,0,1-1.24,4.39,5.33,5.33,0,0,1-4.22,1.82h-.5a12.64,12.64,0,0,1-2.48-.41l-.41.17a1,1,0,0,0,.08.66l.08.17a39.8,39.8,0,0,1,.58,4.06c0,7.78-3.14,11.26-6.46,13.82a22,22,0,0,1-11.09,4.3c-.08,0-.5,0-1.32.08-.5,0-1.16.08-1.24.08h-.08c-.74.17-2.65,1.16-2.65,2.73,0,1.41.83,3.14,5,3.39.83.08,1.74.08,2.65.17,5.46.41,12.17.83,15.31,1.9a10.69,10.69,0,0,1,7.12,10.18c0,7-5,13.57-13.41,17.71a26,26,0,0,1-12.5,3Zm54.21-66.29a9.13,9.13,0,0,0-5.13,1.41c-3.72,2.32-5.63,6.87-5.63,13.49,0,12.5,6.29,21.19,15.23,21.19a9.44,9.44,0,0,0,6.54-2.32c2.73-2.32,4.22-6.87,4.22-13.24,0-12.25-6.12-20.52-15.23-20.52Zm1.74,40.72c-16.14,0-22-11.92-22-23,0-7.78,3.14-13.82,9.43-18a28.84,28.84,0,0,1,14.57-4.3c12.33,0,21,8.86,21,21.6,0,8.69-3.39,15.48-10,19.7a26.2,26.2,0,0,1-13,4.06ZM201.11,370.92a9.13,9.13,0,0,0-5.13,1.41c-3.72,2.32-5.63,6.87-5.63,13.49,0,12.5,6.29,21.19,15.23,21.19a9.44,9.44,0,0,0,6.54-2.32c2.73-2.32,4.22-6.87,4.22-13.24,0-12.25-6.12-20.52-15.23-20.52Zm1.66,40.72c-16.14,0-22-11.92-22-23,0-7.78,3.14-13.82,9.43-18a28.84,28.84,0,0,1,14.57-4.3c12.33,0,21,8.86,21,21.6,0,8.69-3.39,15.48-10,19.7a25.42,25.42,0,0,1-13,4.06Zm-108.66-1a3.64,3.64,0,0,1-.25-2.15,3.46,3.46,0,0,1,.25-1.41,38,38,0,0,0,4.22-.83c1.9-.5,2.65-1.49,2.73-3.89.25-5.71.25-16.55.17-24.08v-.17a2.83,2.83,0,0,0-1.08-2.65A21.82,21.82,0,0,0,94.44,373c-.83-.25-1.41-.74-1.32-1.32s.58-1.24,1.82-1.41a68.55,68.55,0,0,0,14.57-3.72A2.35,2.35,0,0,1,110,368l-.08,1.08c-.08,1.08-.17,2.32-.17,3.56a.72.72,0,0,0,.74.66,1.53,1.53,0,0,0,.58-.17c6.12-4.72,11.59-6.46,14.48-6.46,4.63,0,8.28,2.15,11,6.79a.84.84,0,0,0,.66.41c.17,0,.5-.08.58-.25,5.63-4.3,11.26-6.87,14.9-6.87,8.86,0,14.07,6.54,14.07,17.71,0,3.14,0,7.2-.08,10.92,0,3.31-.08,6.37-.08,8.52a3,3,0,0,0,1.74,2.32,21.77,21.77,0,0,0,5.54,1.32H174a7.69,7.69,0,0,1-.58,3.64c-.58,0-1.41,0-2.4-.08-2.4-.17-4.8-.17-7.2-.17-5.88,0-8.94.08-11.92.25a10.75,10.75,0,0,1,0-3.64,31.17,31.17,0,0,0,3.64-.83c1.9-.58,2.4-1.41,2.48-3.89,0-1.82.41-17.21-.17-20.94a9.35,9.35,0,0,0-9.68-8.28,16.29,16.29,0,0,0-9.68,3.72,1.84,1.84,0,0,0-.41.91v.08a40.37,40.37,0,0,1,.41,7.78v6.21c0,4.3-.08,8.28,0,11.34,0,2.07,1.24,2.57,2.32,3,.58.08.91.17,1.41.25.83.17,1.74.41,3.06.66a5.83,5.83,0,0,1-.08,2.65c-.08.58-.25.83-.41.91-3.23-.08-6.54-.17-11.42-.17-1.41,0-3.89.08-6,.08-1.74,0-3.31.08-4.3.08a5.45,5.45,0,0,1-.25-1.9,2.78,2.78,0,0,1,.41-1.74,7.25,7.25,0,0,1,1.32-.17c1.16-.17,2.07-.41,3.06-.58,1.66-.5,2.15-1.32,2.32-3.39.25-4.72.58-18.37-.08-21.77-1.16-5.54-4.3-8.28-9.35-8.28a17.15,17.15,0,0,0-9.68,3.72,3,3,0,0,0-.83,2.15v5.63c0,6.87,0,15.39.08,19.12a3,3,0,0,0,2.65,3c.5.08,1.24.25,2.15.41l1.74.25a9.34,9.34,0,0,1-.25,3.64c-.91,0-2.07-.08-3.39-.08-2-.08-4.55-.17-7.45-.17-3.31,0-5.71.08-7.61.17a11.67,11.67,0,0,0-3.81-.5Z" transform="translate(-7.95 -0.11)"/><path class="cls-13" d="M44,433.49l-3.89-1.32s.5-19.86-6.62-21.27c-4.72-5.54.74-234,17.88-.74,0,0-5.88,3-7,8-1.16,4.88-.41,15.31-.41,15.31Z" transform="translate(-7.95 -0.11)"/><path class="cls-14" d="M44,433.49l-3.89-1.32s.5-19.86-6.62-21.27c-4.72-5.54.74-234,17.88-.74,0,0-5.88,3-7,8-1.16,4.88-.41,15.31-.41,15.31Z" transform="translate(-7.95 -0.11)"/><path class="cls-13" d="M46.11,414.29s34.18-22.43,26.15-69.19c-7.7-33.93-25.9-45.1-27.89-49.41a52.68,52.68,0,0,1-4.3-8.36l1.41,94.43c.08.17-2.9,29,4.63,32.52" transform="translate(-7.95 -0.11)"/><path class="cls-15" d="M46.11,414.29s34.18-22.43,26.15-69.19c-7.7-33.93-25.9-45.1-27.89-49.41a52.68,52.68,0,0,1-4.3-8.36l1.41,94.43c.08.17-2.9,29,4.63,32.52" transform="translate(-7.95 -0.11)"/><path class="cls-13" d="M38.16,415.53S6.13,393.68,8,355.12s24.41-57.43,28.8-60.91c2.81-3.06,3-4.22,3.14-7.2,2,4.3,1.66,64.06,1.9,71.09C42.71,385.16,40.31,410.4,38.16,415.53Z" transform="translate(-7.95 -0.11)"/><path class="cls-16" d="M38.16,415.53S6.13,393.68,8,355.12s24.41-57.43,28.8-60.91c2.81-3.06,3-4.22,3.14-7.2,2,4.3,1.66,64.06,1.9,71.09C42.71,385.16,40.31,410.4,38.16,415.53Z" transform="translate(-7.95 -0.11)"/><path class="cls-17" d="M602,328.22l45.5-6.24v43.84H602Zm45.5,43.26v43.36L602,408.6V371.48Zm5-50.18L712.94,313v52.91H652.43Zm60.51,50.18V423.9l-60.51-8.28v-44h60.51Z" transform="translate(-7.95 -0.11)"/><path class="cls-18" d="M815.63,401.19H805.11V360.56c0-3.31.19-7.4.58-12.18h-.19a54.73,54.73,0,0,1-1.75,5.94l-19.1,47h-7.31l-19.1-46.57a52.93,52.93,0,0,1-1.66-6.24h-.19c.19,2.53.39,6.63.39,12.28v40.53h-9.84V338.55h14.91l16.76,41.8a67.69,67.69,0,0,1,2.53,7.21h.19c1.07-3.31,1.95-5.75,2.63-7.4l17.15-41.6h14.42l.1,62.65Zm19.78-54.27a6.64,6.64,0,0,1-4.38-1.66,5.56,5.56,0,0,1,0-8.28,6.28,6.28,0,0,1,4.38-1.66,6.7,6.7,0,0,1,4.48,1.66,5.6,5.6,0,0,1,1.85,4.19,5.36,5.36,0,0,1-1.85,4.09A6.7,6.7,0,0,1,835.41,346.92Zm5.07,54.27H830.15V356.38h10.33v44.82Zm46.18-2a26,26,0,0,1-13,3.12c-6.72,0-12.28-2-16.37-6.24s-6.24-9.55-6.24-16.17q0-11.11,6.72-17.83c4.48-4.48,10.43-6.72,17.93-6.72a26.13,26.13,0,0,1,11,2.14v9.45a16.82,16.82,0,0,0-10.13-3.51,14.17,14.17,0,0,0-10.72,4.38c-2.83,2.92-4.19,6.72-4.19,11.4s1.27,8.28,3.9,11,6.14,4,10.62,4a16.6,16.6,0,0,0,10.52-3.9ZM923.39,366a8.56,8.56,0,0,0-5.36-1.46,9.36,9.36,0,0,0-7.7,4.09c-2,2.73-3.12,6.43-3.12,11.11v21.44H896.89V356.38h10.33v9.26h.19a15.18,15.18,0,0,1,4.68-7.4,10.47,10.47,0,0,1,7-2.63,8.53,8.53,0,0,1,4.29.88V366ZM951,402.27c-7,0-12.67-2-16.86-6.24s-6.33-9.74-6.33-16.66c0-7.5,2.14-13.45,6.53-17.64s10.23-6.33,17.73-6.33q10.67,0,16.66,6.14c4,4.09,5.94,9.84,5.94,17.15,0,7.11-2.14,12.86-6.43,17.15S958.27,402.27,951,402.27Zm.49-38.88a11.74,11.74,0,0,0-9.55,4.19c-2.34,2.73-3.51,6.63-3.51,11.5,0,4.68,1.17,8.38,3.6,11.11a12,12,0,0,0,9.55,4.09c4.09,0,7.21-1.36,9.35-4s3.31-6.43,3.31-11.3-1.07-8.77-3.31-11.4c-2.24-2.83-5.36-4.19-9.45-4.19Zm31,36.44v-9.45a20.58,20.58,0,0,0,12.76,4.29c6.24,0,9.35-1.85,9.35-5.46a4.9,4.9,0,0,0-.78-2.63,8.41,8.41,0,0,0-2.14-1.95,12.3,12.3,0,0,0-3.22-1.46q-1.9-.73-4.09-1.46a47.7,47.7,0,0,1-5.07-2.34,13.78,13.78,0,0,1-3.7-2.83,10.28,10.28,0,0,1-2.24-3.51,12.85,12.85,0,0,1-.78-4.58,10.39,10.39,0,0,1,1.56-5.75,14.3,14.3,0,0,1,4.19-4.19,19.22,19.22,0,0,1,5.94-2.53,27.48,27.48,0,0,1,6.92-.88,31.62,31.62,0,0,1,11.3,1.85v8.87a19.47,19.47,0,0,0-11-3.22,12.88,12.88,0,0,0-3.51.39,10,10,0,0,0-2.73,1.07,5.77,5.77,0,0,0-1.75,1.66,4.17,4.17,0,0,0-.58,2.14,4.75,4.75,0,0,0,.58,2.44,5.36,5.36,0,0,0,1.85,1.75,13.68,13.68,0,0,0,2.92,1.36c1.17.39,2.44.88,3.9,1.36a51.5,51.5,0,0,1,5.26,2.44,15.43,15.43,0,0,1,4,2.83,10.51,10.51,0,0,1,2.53,3.6,12.1,12.1,0,0,1,.88,4.87,10.83,10.83,0,0,1-1.56,5.94,13.55,13.55,0,0,1-4.29,4.19,19.27,19.27,0,0,1-6.14,2.44,30.3,30.3,0,0,1-7.4.78,27.35,27.35,0,0,1-13-2Zm62.45,2.44c-7,0-12.67-2-16.86-6.24s-6.33-9.74-6.33-16.66c0-7.5,2.14-13.45,6.53-17.64s10.23-6.33,17.73-6.33q10.67,0,16.66,6.14c4,4.09,5.94,9.84,5.94,17.15,0,7.11-2.14,12.86-6.43,17.15s-10,6.43-17.25,6.43Zm.49-38.88a11.74,11.74,0,0,0-9.55,4.19c-2.34,2.73-3.51,6.63-3.51,11.5,0,4.68,1.17,8.38,3.6,11.11a12,12,0,0,0,9.55,4.09c4.09,0,7.21-1.36,9.35-4s3.31-6.43,3.31-11.3-1.07-8.77-3.31-11.4c-2.24-2.83-5.36-4.19-9.45-4.19Zm59.53-20.27a9.63,9.63,0,0,0-4.77-1.17c-5.07,0-7.5,2.83-7.5,8.38v6h10.62v8h-10.52v36.83H1082.4V364.36h-7.79v-8h7.79v-7.31c0-4.77,1.56-8.48,4.68-11.2a17.37,17.37,0,0,1,11.79-4.09,16.85,16.85,0,0,1,6,.88v8.48Zm29.81,57.58a18.58,18.58,0,0,1-8,1.46c-8.87,0-13.25-4.19-13.25-12.57V364.27h-7.6v-8h7.6V345.85l10.33-2.92v13.25h10.91v8h-10.91v22.41c0,2.63.49,4.58,1.46,5.65s2.63,1.75,4.87,1.75a7.35,7.35,0,0,0,4.58-1.46v8.18Zm87.59.49h-11.59l-5.75-16h-25.14l-5.55,16h-11.5l23.87-62.75h11.89l23.77,62.75Zm-20.17-24.46-8.87-25a24.12,24.12,0,0,1-.88-3.9h-.19a30.49,30.49,0,0,1-.88,3.9l-8.77,25Zm61.48-16.17L1239,393.2h24.55v7.89h-39v-3.8l25.14-33.13h-22.8v-7.89h36.73v4.29Zm48.52,40.63h-10.33v-7.11h-.19a14.93,14.93,0,0,1-13.93,8.18c-10.81,0-16.17-6.33-16.17-19.1V356.38h10.33V382.1c0,8.09,3.12,12.08,9.45,12.08a9.49,9.49,0,0,0,7.5-3.31,12.8,12.8,0,0,0,2.92-8.67V356.38H1312ZM1352.09,366a8.56,8.56,0,0,0-5.36-1.46,9.36,9.36,0,0,0-7.7,4.09c-2,2.73-3.12,6.43-3.12,11.11v21.44h-10.33V356.38h10.33v9.26h.19a15.18,15.18,0,0,1,4.68-7.4,10.47,10.47,0,0,1,7-2.63,8.53,8.53,0,0,1,4.29.88V366Zm46,15.49H1367c.1,4.19,1.46,7.31,3.9,9.55s5.85,3.41,10.23,3.41a23.22,23.22,0,0,0,13.45-4.29v8.18c-4.19,2.53-9.65,3.9-16.47,3.9s-12-2-15.78-6.14-5.75-9.84-5.75-17.15c0-7,2.14-12.67,6.33-17.05a20.9,20.9,0,0,1,15.69-6.63c6.24,0,11,1.95,14.42,5.94s5.16,9.45,5.16,16.47l-.1,3.8Zm-9.94-7.21c0-3.6-.88-6.53-2.63-8.48a8.81,8.81,0,0,0-7.11-3,10,10,0,0,0-7.5,3.22,14.57,14.57,0,0,0-3.8,8.38l21-.1Z" transform="translate(-7.95 -0.11)"/><g id="logo-bluemix"><path class="cls-19" d="M1545.08,100.81h4.85v50.63h-4.85Z" transform="translate(-7.95 -0.11)"/><path class="cls-19" d="M1555.9,100.81h21.44c8.48,0,16.22,3,16.22,12.4a11.6,11.6,0,0,1-8.76,11.38v.19c6.53.84,10.72,5.78,10.72,12.31,0,4.85-1.68,14.36-18.18,14.36H1555.9Zm4.85,22.19h16.6c7.65,0,11.38-3.82,11.38-8.58,0-6.34-3.82-9.51-11.38-9.51h-16.6Zm0,24.34h16.6c7.18,0,13.33-2.24,13.33-10.44,0-6.53-4.85-9.79-13.33-9.79h-16.6Z" transform="translate(-7.95 -0.11)"/><path class="cls-19" d="M1600,100.81h7.09l17.53,44.38L1642,100.81h7.09v50.63h-4.85V107.71h-.19l-17.25,43.73h-4.57l-17.34-43.73h-.19v43.73h-4.85l.09-50.63Z" transform="translate(-7.95 -0.11)"/><path class="cls-19" d="M1670.3,100.81h23.78c9.6,0,16.13,3.08,16.13,12.59,0,5-2.42,8.39-6.9,10.54,6.25,1.77,9.32,6.53,9.32,12.87,0,10.26-8.67,14.64-17.9,14.64h-24.52l.09-50.63Zm11.19,20.51h11.28c4,0,6.81-1.77,6.81-6.06,0-4.76-3.73-5.78-7.65-5.78h-10.44Zm0,21.44h11.93c4.29,0,8.2-1.4,8.2-6.62s-3.17-7.27-8-7.27h-12.12Z" transform="translate(-7.95 -0.11)"/><path class="cls-19" d="M1717.57,100.81h10.07v50.63h-10.07Z" transform="translate(-7.95 -0.11)"/><path class="cls-19" d="M1767.92,151.44h-9.6v-5.13h-.19a12.75,12.75,0,0,1-11.19,6.06c-10.72,0-13.43-6.06-13.43-15.1V114.7h10.07v20.7c0,6.06,1.68,9,6.43,9,5.5,0,7.83-3.08,7.83-10.44V114.79h10.07v36.64Z" transform="translate(-7.95 -0.11)"/><path class="cls-19" d="M1782.75,135.49c.28,6.43,3.36,9.32,9,9.32,4,0,7.27-2.52,7.93-4.76h8.86c-2.8,8.67-8.86,12.31-17.16,12.31-11.56,0-18.74-7.93-18.74-19.3,0-11,7.55-19.3,18.74-19.3,12.49,0,18.55,10.44,17.81,21.72h-26.48Zm16.32-6.34c-.93-5.13-3.08-7.83-8-7.83-6.53,0-8.11,4.94-8.39,7.83Z" transform="translate(-7.95 -0.11)"/><path class="cls-19" d="M1814.35,114.79h9.51v4.94h.19a13.15,13.15,0,0,1,11.19-6c4.57,0,8.67,1.59,10.72,6.06a13.52,13.52,0,0,1,11.1-6.06c7.83,0,13.43,3.64,13.43,13.15v24.52h-10.07V130.64c0-4.85-.47-9-6.15-9s-6.71,4.76-6.71,9.32v20.42h-10.07V130.92c0-4.29.28-9.14-6.06-9.14-2,0-6.81,1.31-6.81,8.39v21.26h-10.07l-.19-36.64Z" transform="translate(-7.95 -0.11)"/><path class="cls-19" d="M1886.52,109.11h-10.07v-8.3h10.07Zm-10.07,5.69h10.07v36.64h-10.07Z" transform="translate(-7.95 -0.11)"/><path class="cls-19" d="M1903.3,132.14l-12-17.34h11.47l6.43,9.6,6.34-9.6h11.1l-12,17.16,13.52,19.49h-11.47L1909,139.88l-7.65,11.56h-11.28Z" transform="translate(-7.95 -0.11)"/><path class="cls-19" d="M1424.71,126.73a34.53,34.53,0,0,0,2.7,13.43,35.08,35.08,0,0,0,7.37,11,21.35,21.35,0,0,0,2.14,2V100.25c-.75.65-1.49,1.31-2.14,2a33.56,33.56,0,0,0-7.37,11A35.34,35.34,0,0,0,1424.71,126.73Z" transform="translate(-7.95 -0.11)"/><path class="cls-20" d="M1483.73,102.3a33.56,33.56,0,0,0-11-7.37,34.88,34.88,0,0,0-13.43-2.7,34,34,0,0,0-11.84,2.05l45.87,26.48a36,36,0,0,0-2.24-7.46A33.56,33.56,0,0,0,1483.73,102.3Z" transform="translate(-7.95 -0.11)"/><path class="cls-20" d="M1443.26,96.15h0L1460,125.33h33.75a4.54,4.54,0,0,0-.09-1.12L1444.2,95.59C1443.92,95.77,1443.54,96,1443.26,96.15Z" transform="translate(-7.95 -0.11)"/><path class="cls-21" d="M1493.8,128.13H1460l-16.78,29.18h0a5,5,0,0,0,1,.47l49.51-28.62A3.49,3.49,0,0,0,1493.8,128.13Z" transform="translate(-7.95 -0.11)"/><path class="cls-21" d="M1472.73,158.62a35.08,35.08,0,0,0,11-7.37,33.56,33.56,0,0,0,7.37-11,36,36,0,0,0,2.24-7.46l-45.87,26.48a34,34,0,0,0,11.84,2.05A34.53,34.53,0,0,0,1472.73,158.62Z" transform="translate(-7.95 -0.11)"/><path class="cls-19" d="M1457.62,126.73h0l-16.78-29.18h0c-.09.09-.93.65-.93.65v57.16a5.66,5.66,0,0,1,.93.65h0Z" transform="translate(-7.95 -0.11)"/><path class="cls-22" d="M1460,128.13Z" transform="translate(-7.95 -0.11)"/><path class="cls-20" d="M1459.3,89.53a37.24,37.24,0,0,1,37,32.91c.09.56.09,1,.19,1.59h0l17.06-29.56-17.81-30.86h-35.62l-17.06,29.65c.56-.28,1-.47,1.59-.75A36,36,0,0,1,1459.3,89.53Z" transform="translate(-7.95 -0.11)"/><polygon class="cls-22" points="1435.78 161.3 1435.78 161.3 1435.03 160.09 1435.03 160.09 1435.78 161.3"/><path class="cls-21" d="M1496.41,129.43h0a10.28,10.28,0,0,1-.19,1.68,37.24,37.24,0,0,1-37,32.91,36.87,36.87,0,0,1-14.73-3.08c-.47-.19-1-.47-1.49-.65L1460,189.85h35.62L1513.47,159Z" transform="translate(-7.95 -0.11)"/><path class="cls-19" d="M1438.51,95.87H1404.2l-17.81,30.86,17.81,30.86h34.13c-.47-.28-.84-.65-1.31-.93a37.23,37.23,0,0,1,.09-59.67A4.13,4.13,0,0,1,1438.51,95.87Z" transform="translate(-7.95 -0.11)"/><path class="cls-19" d="M1929,114.89h4.38v.84h-1.68v4.57h-.93v-4.66h-1.68v-.75Z" transform="translate(-7.95 -0.11)"/><path class="cls-19" d="M1934,114.89h1.31l1.49,4.2h0l1.49-4.2h1.31v5.41h-.93v-4.2h0l-1.49,4.2h-.75l-1.49-4.2h0v4.2H1934v-5.41Z" transform="translate(-7.95 -0.11)"/></g><g id="g4163"><g id="g4165"><path id="path4167" class="cls-23" d="M2452.7,348.71c-.28-.6-.4-.9-.56-1.18Q2446.07,336,2440,324.44a1.41,1.41,0,0,1,.2-1.89q9.66-11.28,19.26-22.62a2,2,0,0,0,.51-1l-5.62,1.47q-11.67,3.09-23.34,6.21a1.07,1.07,0,0,1-1.41-.62q-6.63-11.07-13.3-22.11a3,3,0,0,0-1-1.08c-.36,2-.72,3.93-1.07,5.9q-1.85,10.42-3.7,20.84c-.13.75-.32,1.5-.38,2.25s-.43,1-1.08,1.19q-13.76,4.32-27.49,8.69a3,3,0,0,0-1.23.68l22.6,9c-.28.22-.46.39-.66.52-4.69,3-9.38,6.05-14.05,9.1a1.5,1.5,0,0,1-1.63.13c-5.6-2.52-11.21-5-16.82-7.5a17.35,17.35,0,0,1-6.54-4.77c-4-4.88-3.2-10.42,2.11-13.81a25.06,25.06,0,0,1,5.68-2.58c9-2.93,18-5.75,27-8.58a1.53,1.53,0,0,0,1.25-1.39q1.8-10.43,3.7-20.84c.67-3.71,1-7.52,2.83-10.92a18.32,18.32,0,0,1,2.51-3.68c3.58-4,8.57-4.12,12.35-.34A23.5,23.5,0,0,1,2424,271q6.25,10.19,12.34,20.48a1.34,1.34,0,0,0,1.81.73q15.07-4,30.16-8a14.19,14.19,0,0,1,6.3-.35c4.64.87,6.66,4.4,5.09,8.87a17.13,17.13,0,0,1-3.33,5.39q-10.53,12.38-21.07,24.75a1.44,1.44,0,0,0-.19,1.91q6.3,11.88,12.54,23.79a13.22,13.22,0,0,1,1.79,6,9.75,9.75,0,0,1-8.5,9.74,17.63,17.63,0,0,1-7.91-1q-9.45-2.92-18.93-5.76a1.08,1.08,0,0,1-.91-1c-.73-4.44-1.52-8.88-2.28-13.32a2.84,2.84,0,0,1,0-.53l21.74,6" transform="translate(-7.95 -0.11)"/><path id="path4169" class="cls-24" d="M2440.41,413.43c-5.68,0-11.36,0-17,0a1.65,1.65,0,0,1-1.59-.85q-10.09-15.37-20.24-30.7c-.22-.33-.44-.64-.83-1.19l-4.3,32.68h-14.88c.17-1.45.33-2.85.51-4.25q2.18-16.64,4.37-33.28,2.09-15.9,4.19-31.8a1.37,1.37,0,0,1,.51-.88q7.68-5,15.39-10a2.31,2.31,0,0,1,.44-.13l-4.64,35.37.18.13,24.35-27c.24,1.37.44,2.55.65,3.73.58,3.37,1.13,6.74,1.75,10.1a1.6,1.6,0,0,1-.51,1.57q-7.82,8.18-15.6,16.4l-.7.77c.17.27.31.52.47.76l26.9,37.74a5.33,5.33,0,0,0,.6.61v.2" transform="translate(-7.95 -0.11)"/><path id="path4171" class="cls-24" d="M2264,380.72a34.8,34.8,0,0,0-.9-4.45c-2.49-7.69-10.38-11.9-18.55-10a20.68,20.68,0,0,0-16.28,18.27,14.84,14.84,0,0,0,9.72,15.72,17.56,17.56,0,0,0,15.58-1.78C2260.07,394.59,2263.58,388.84,2264,380.72Zm-39.34,28.58c-.44,3.31-.86,6.42-1.27,9.54q-.82,6.22-1.61,12.44c-.06.48-.21.7-.73.69-4.09,0-8.17,0-12.26,0a2.2,2.2,0,0,1-.41-.11c.25-2,.49-3.92.74-5.88q1.35-10.32,2.72-20.63c1-7.86,1.88-15.76,3.22-23.58,2.37-13.83,14.11-25.76,27.88-28.72,8-1.72,15.63-.93,22.6,3.57a25.21,25.21,0,0,1,11.85,19.16c1.29,11.56-3,21.16-11.18,29.1a34.71,34.71,0,0,1-19.29,9.65c-7.67,1.16-14.88-.12-21.35-4.64-.24-.17-.49-.31-.9-.57" transform="translate(-7.95 -0.11)"/><path id="path4173" class="cls-24" d="M2218,343.56l-13.44,10c-.72-1.13-1.36-2.25-2.1-3.3-1.93-2.69-4.32-4.7-7.79-4.95a8.72,8.72,0,0,0-7.34,2.88A5.13,5.13,0,0,0,2187,355c1.81,2.37,3.79,4.62,5.82,6.82,3.36,3.64,6.86,7.14,10.2,10.8,3,3.33,5.45,7.06,6.2,11.61a23.66,23.66,0,0,1-2.75,15.32c-4.74,8.8-12.19,13.9-22,15.5a28.91,28.91,0,0,1-12.92-.68,19,19,0,0,1-12.07-10.56c-.89-1.84-1.57-3.79-2.38-5.76l14.57-7.8c.17.4.29.74.45,1.06a43.56,43.56,0,0,0,2.53,4.95,9.89,9.89,0,0,0,12.94,3.66,14.27,14.27,0,0,0,3.56-2.32,7.59,7.59,0,0,0,1.44-10.41,50.76,50.76,0,0,0-4.74-5.76c-4-4.42-8.11-8.69-12-13.19a20.83,20.83,0,0,1-5.07-10.86,18.62,18.62,0,0,1,2.64-12.62c5.86-9.48,14.38-14.42,25.65-14,6.42.23,11.54,3.24,15.51,8.23,1.17,1.48,2.28,3,3.48,4.61" transform="translate(-7.95 -0.11)"/><path id="path4175" class="cls-24" d="M2326.89,394.47c-.75,5.71-1.45,11.14-2.18,16.57a1.11,1.11,0,0,1-.49.76c-11.09,5.14-25.7,4.42-34.8-5.92a26.74,26.74,0,0,1-6.64-19.49c.71-17,14.79-31.81,31.63-33.89,9.84-1.21,18.47,1.45,25.14,9.09a25.32,25.32,0,0,1,6.33,18.29c-.2,4.53-.91,9-1.48,13.56-.8,6.39-1.67,12.77-2.52,19.16,0,.23-.08.45-.13.74h-13.27c.18-1.47.34-2.9.52-4.34,1-7.38,2-14.74,2.86-22.13a23.64,23.64,0,0,0-1.91-13.43A13,13,0,0,0,2319,366a20.72,20.72,0,0,0-22.12,16.07c-1.44,6.64.83,13,6.11,16.52s10.67,3.44,16.28,1.22a21.29,21.29,0,0,0,7.58-5.32" transform="translate(-7.95 -0.11)"/><path id="path4177" class="cls-24" d="M2382.75,353.78l-1.81,13.76c-2.8,0-5.56,0-8.31,0a5.23,5.23,0,0,0-4.93,3.54,14.4,14.4,0,0,0-.47,2.54q-2.09,15.84-4.17,31.69c-.35,2.66-.69,5.33-1,8h-13.81c.26-2,.5-4,.76-6q1.35-10.27,2.71-20.53c.79-5.92,1.49-11.86,2.41-17.76,1.24-7.91,9.11-14.93,17.09-15.28,3.81-.17,7.63,0,11.57,0" transform="translate(-7.95 -0.11)"/><path id="path4179" class="cls-24" d="M2456.69,413.34v-5.83h0l-2.29,5.83h-.73l-2.29-5.83h0v5.83h-1.15v-7h1.78l2.08,5.3,2.05-5.3h1.76v7Zm-10.14-6v6h-1.15v-6h-2.19v-.93h5.53v.93h-2.19" transform="translate(-7.95 -0.11)"/><path id="path4181" class="cls-24" d="M2236.55,333.76H2240l-.81-5.18Zm4,3.35h-5.7l-1.81,3.54h-4l8.9-16.62h3.89l3,16.62H2241l-.54-3.54" transform="translate(-7.95 -0.11)"/><path id="path4183" class="cls-24" d="M2260.89,327.37h-2l-.68,3.84h2a2.13,2.13,0,0,0,2.2-2.32A1.39,1.39,0,0,0,2260.89,327.37ZM2256,324h5.33c2.79,0,4.74,1.66,4.74,4.52a5.8,5.8,0,0,1-6.16,6h-2.3l-1.08,6.09H2253L2256,324" transform="translate(-7.95 -0.11)"/><path id="path4185" class="cls-24" d="M2277.84,333.76h3.42l-.81-5.18Zm4,3.35h-5.7l-1.81,3.54h-4l8.9-16.62H2283l3,16.62h-3.74l-.54-3.54" transform="translate(-7.95 -0.11)"/><path id="path4187" class="cls-24" d="M2304.32,340.06a9.11,9.11,0,0,1-3.76.86c-4.4,0-7.16-3.3-7.16-7.43a9.85,9.85,0,0,1,9.73-9.73,7.25,7.25,0,0,1,3.5.86l-.49,4a4.48,4.48,0,0,0-3.37-1.37,6,6,0,0,0-5.72,5.92c0,2.42,1.52,4.3,3.91,4.3a6.23,6.23,0,0,0,3.84-1.34l-.47,4" transform="translate(-7.95 -0.11)"/><path id="path4189" class="cls-24" d="M2325.54,334h-7.24l-1.18,6.7h-3.47l2.93-16.62h3.47l-1.17,6.58h7.24l1.17-6.58h3.47l-2.93,16.62h-3.47l1.17-6.7" transform="translate(-7.95 -0.11)"/><path id="path4191" class="cls-24" d="M2338.27,340.65,2341.2,324h9.22l-.59,3.35h-5.75l-.58,3.23h5.28l-.58,3.35h-5.28l-.59,3.35h5.75l-.59,3.35h-9.22" transform="translate(-7.95 -0.11)"/></g></g><polygon class="cls-25" points="2057.72 131.38 2044.48 131.38 2044.48 116.98 2039.27 116.98 2039.27 131.38 2026.02 131.38 2026.02 136.48 2039.27 136.48 2039.27 150.88 2044.48 150.88 2044.48 136.48 2057.72 136.48 2057.72 131.38"/><polygon class="cls-26" points="2031.08 154.88 2019.22 154.88 2019.22 142 2014.73 142 2014.73 154.88 2002.85 154.88 2002.85 158.81 2014.73 158.81 2014.73 171.7 2019.22 171.7 2019.22 158.81 2031.08 158.81 2031.08 154.88"/><polygon class="cls-27" points="2080.88 108.76 2069.02 108.76 2069.02 95.81 2064.53 95.81 2064.53 108.76 2052.65 108.76 2052.65 112.68 2064.53 112.68 2064.53 125.52 2069.02 125.52 2069.02 112.68 2080.88 112.68 2080.88 108.76"/><polygon class="cls-28" points="2051.91 169.21 2043.87 169.21 2043.87 160.21 2040.04 160.21 2040.04 169.21 2031.98 169.21 2031.98 172.66 2040.04 172.66 2040.04 181.64 2043.87 181.64 2043.87 172.66 2051.91 172.66 2051.91 169.21"/><polygon class="cls-29" points="2031.08 108.76 2019.08 108.76 2019.08 95.81 2014.88 95.81 2014.88 108.76 2002.85 108.76 2002.85 112.58 2014.88 112.58 2014.88 125.52 2019.08 125.52 2019.08 112.58 2031.08 112.58 2031.08 108.76"/><polygon class="cls-28" points="2090.01 132.18 2081.95 132.18 2081.95 123.21 2078.11 123.21 2078.11 132.18 2070.06 132.18 2070.06 135.65 2078.11 135.65 2078.11 144.65 2081.95 144.65 2081.95 135.65 2090.01 135.65 2090.01 132.18"/><polygon class="cls-30" points="2080.88 154.88 2069.02 154.88 2069.02 142 2064.53 142 2064.53 154.88 2052.65 154.88 2052.65 158.81 2064.53 158.81 2064.53 171.7 2069.02 171.7 2069.02 158.81 2080.88 158.81 2080.88 154.88"/><polygon class="cls-31" points="2040.52 86.62 2040.52 95.45 2032.56 95.45 2032.56 98.12 2040.52 98.12 2040.52 106.92 2043.38 106.92 2043.38 98.12 2051.35 98.12 2051.35 95.45 2043.38 95.45 2043.38 86.62 2040.52 86.62"/><polygon class="cls-31" points="2012.44 132.53 2004.45 132.53 2004.45 123.89 2001.64 123.89 2001.64 132.53 1993.65 132.53 1993.65 135.33 2001.64 135.28 2001.64 143.98 2004.45 143.98 2004.45 135.25 2012.44 135.2 2012.44 132.53"/><path class="cls-30" d="M2258,109.54a21.84,21.84,0,0,1,7.71-1.6c8.9,0,14.91,6.25,14.91,16,0,10.17-6.39,16.11-17.46,16.11a35.84,35.84,0,0,1-11.64-2.09l-.19-44.9H2258Zm5.82,24.44c6.22,0,9.78-3.56,9.78-9.93s-3.6-10-9.19-10a16,16,0,0,0-6.39,1.6v17.2a16.87,16.87,0,0,0,5.83,1.13" transform="translate(-7.95 -0.11)"/><rect class="cls-30" x="2300.3" y="86.61" width="6.59" height="59.03"/><path class="cls-30" d="M2351.25,120.49h15.14a6,6,0,0,0-5.53-6.39h-.65a8.89,8.89,0,0,0-9,6.39m7.45,19.74c-10.15-1-15.11-8.12-14.82-16.59.3-9.14,6.22-15.63,15.25-15.63,9.46,0,14.95,7,14.48,17.33h-22.78c.54,5.72,4,8.42,8.68,8.79a23.47,23.47,0,0,0,12.42-2.46V138a23.53,23.53,0,0,1-13.22,2.27" transform="translate(-7.95 -0.11)"/><path class="cls-30" d="M2471.39,135c4.19,0,7-2.13,7-6.91V108.67h6.6V129c0,6.79-5.28,11-13.67,11s-13.67-4.16-13.67-11V108.67h6.67V128.2c0,4.8,2.83,6.91,7,6.91" transform="translate(-7.95 -0.11)"/><path class="cls-30" d="M2207.42,140.12c-11.19,0-17.46-5.95-17.46-16.11,0-9.8,6-16,14.91-16a13.64,13.64,0,0,1,7.74,2v-2.27h6.67L2219,138a32.45,32.45,0,0,1-11.64,2.09m-.67-6.12a23.69,23.69,0,0,0,5.71-.72l.21-17.06a11,11,0,0,0-6.39-2.16c-5.59,0-9.19,3.76-9.19,10s3.56,10,9.78,9.93" transform="translate(-7.95 -0.11)"/><path class="cls-30" d="M2417.85,140.12c-11.19,0-17.46-5.95-17.46-16.11,0-9.8,6-16,14.91-16a13.64,13.64,0,0,1,7.71,2.11v-2.35h6.67l-.19,30.21a32.42,32.42,0,0,1-11.62,2.09m-.67-6.12a24,24,0,0,0,5.71-.72l.13-17a11,11,0,0,0-6.39-2.16c-5.59,0-9.19,3.76-9.19,10s3.56,9.93,9.78,9.93" transform="translate(-7.95 -0.11)"/><polygon class="cls-30" points="2132.43 95.06 2139.02 95.06 2139.02 113.8 2156.84 113.8 2156.84 119.92 2139.02 119.92 2139.02 140.22 2132.43 140.22 2132.43 119.92 2114.61 119.92 2114.61 113.8 2132.43 113.8 2132.43 95.06"/><path class="cls-30" d="M2496,108.35a4,4,0,1,1-3.93,4h0a3.9,3.9,0,0,1,3.85-3.95h0Zm0,.61a3.36,3.36,0,1,0,3.2,3.51q0-.16,0-.31A3.36,3.36,0,0,0,2496,109Zm-.74,5.64h-.69v-4.33a8,8,0,0,1,1.25-.11,2.33,2.33,0,0,1,1.37.34,1.07,1.07,0,0,1,.4.91,1.1,1.1,0,0,1-.86,1.07h0a1.07,1.07,0,0,1,.74,1.07,3.87,3.87,0,0,0,.27,1.09H2497a3.2,3.2,0,0,1-.3-1.12.83.83,0,0,0-.88-.77h-.56v1.85Zm0-2.45h.51a.88.88,0,0,0,1.06-.66v-.1a.86.86,0,0,0-.93-.78h-.66v1.52Z" transform="translate(-7.95 -0.11)"/><path class="cls-27" d="M2182.41,158.48l-2.75,1.6a4.8,4.8,0,0,0-1.47-1.74,4,4,0,0,0-4.24.34,2.49,2.49,0,0,0-.93,2q0,1.6,2.45,2.65l2.24.91a9.59,9.59,0,0,1,4,2.7,6.11,6.11,0,0,1,1.26,3.92,6.89,6.89,0,0,1-2.06,5.13,7.1,7.1,0,0,1-5.18,2,6.91,6.91,0,0,1-4.8-1.74,8,8,0,0,1-2.38-4.8l3.44-.75a5.85,5.85,0,0,0,.82,2.73,3.88,3.88,0,0,0,5.45.61l.26-.21a3.68,3.68,0,0,0,1.06-2.7,3.77,3.77,0,0,0-.18-1.2,3.07,3.07,0,0,0-.58-1,4.54,4.54,0,0,0-1-.86,9.59,9.59,0,0,0-1.45-.77l-2.14-.93q-4.62-2-4.62-5.71a5.42,5.42,0,0,1,1.93-4.24,7,7,0,0,1,4.8-1.73A6.75,6.75,0,0,1,2182.41,158.48Z" transform="translate(-7.95 -0.11)"/><path class="cls-27" d="M2235.34,158.33h-9v5.4h8.76v3.2h-8.76v7.53h9v3.2h-12.42V155.14h12.42Z" transform="translate(-7.95 -0.11)"/><path class="cls-27" d="M2283.27,168l7,9.59h-4.09l-6.39-9.21h-.61v9.21h-3.39V155.14h4a9.94,9.94,0,0,1,6.39,1.6,6.15,6.15,0,0,1,2.19,4.92,6.39,6.39,0,0,1-1.37,4.11A6.11,6.11,0,0,1,2283.27,168Zm-4.24-2.57h1.07q4.8,0,4.8-3.69t-4.7-3.45H2279v7.15Z" transform="translate(-7.95 -0.11)"/><path class="cls-27" d="M2329.77,155.14l6.22,15.6,6.31-15.6H2346l-10.1,24.2-9.82-24.2Z" transform="translate(-7.95 -0.11)"/><path class="cls-27" d="M2397.07,158.33h-9v5.4h8.76v3.2h-8.76v7.53h9v3.2h-12.42V155.14h12.42Z" transform="translate(-7.95 -0.11)"/><path class="cls-27" d="M2445,168l7,9.59h-4.16l-6.39-9.21h-.61v9.21h-3.44V155.14h4a9.94,9.94,0,0,1,6.39,1.6,6.15,6.15,0,0,1,2.19,4.92,6.39,6.39,0,0,1-1.37,4.11A6.11,6.11,0,0,1,2445,168Zm-4.22-2.57h1q4.8,0,4.8-3.69t-4.7-3.45h-1.21v7.15Z" transform="translate(-7.95 -0.11)"/></svg>