<svg id="Layer_1" data-name="Layer 1" xmlns="http://www.w3.org/2000/svg" viewBox="0 0 47.63 47.63"><defs><style>.cls-1{fill:#25a9ce;}</style></defs><title>Icons2</title><path class="cls-1" d="M321.58,343.81H319.4v5.95h2.18a2.79,2.79,0,0,0,3.06-3.09C324.64,344.45,323.48,343.81,321.58,343.81Z" transform="translate(-294.91 -322.23)"/><path class="cls-1" d="M318.72,322.23A23.81,23.81,0,1,0,342.54,346,23.81,23.81,0,0,0,318.72,322.23ZM326.17,362l-5.1-8.57h-1.63V362h-4.79V340h7.85c3.81,0,7.28,1.33,7.28,6.29a6.63,6.63,0,0,1-4,6.22l5.71,9.48h-5.34Zm3.51-6.91-0.88-1.46c3.82-1.81,6.28-4.64,6.28-7.81,0-5.46-7.28-9.9-16.23-9.9s-16.23,4.44-16.23,9.9c0,4.12,4.15,7.65,10,9.14v1.77c-6.86-1.64-11.77-5.9-11.77-10.91,0-6.42,8.06-11.64,18-11.64s18,5.22,18,11.64C336.82,349.59,334,353,329.68,355.08Z" transform="translate(-294.91 -322.23)"/></svg>