<svg id="7d2dd8b8-e3de-410d-8b01-3f91543b07a9" data-name="Ebene 1" xmlns="http://www.w3.org/2000/svg" viewBox="0 0 72.58 79.78"><defs><style>.\39 6c43400-2107-4cbd-b2c6-02a9b7d332c2{fill:#9c1c29;}.\31 8772cca-7881-4bf6-95dc-9f61ba3eba88{fill:#d43c35;}.f27bfe11-b02b-4ec8-b7a9-bc4a5ca61188{fill:#fff;}</style></defs><title>rails</title><polygon class="96c43400-2107-4cbd-b2c6-02a9b7d332c2" points="0 0 72.58 0 66.28 71.39 36.29 79.78 6.6 71.98 0 0"/><polygon class="18772cca-7881-4bf6-95dc-9f61ba3eba88" points="35.29 5.6 64.88 5.6 59.68 65.58 35.29 72.38 35.29 5.6"/><polygon class="f27bfe11-b02b-4ec8-b7a9-bc4a5ca61188" points="54.2 21.58 54.2 22.87 56.6 23.23 56.6 22.23 54.2 21.58"/><polygon class="f27bfe11-b02b-4ec8-b7a9-bc4a5ca61188" points="54.51 15.87 56.84 17.04 57.61 16.28 54.7 14.24 54.51 15.87"/><polygon class="f27bfe11-b02b-4ec8-b7a9-bc4a5ca61188" points="45.28 12.51 49.14 12.73 49.37 15.07 45.71 14.72 45.28 12.51"/><polygon class="f27bfe11-b02b-4ec8-b7a9-bc4a5ca61188" points="36.51 13.07 38.42 15.51 35.38 17.07 33.52 14.42 36.51 13.07"/><polygon class="f27bfe11-b02b-4ec8-b7a9-bc4a5ca61188" points="25.32 19.5 28.31 21.57 25.98 24.29 22.79 22.1 25.32 19.5"/><polygon class="f27bfe11-b02b-4ec8-b7a9-bc4a5ca61188" points="21.36 32.63 20.2 35.79 16.08 34.66 17.38 30.94 21.36 32.63"/><polygon class="f27bfe11-b02b-4ec8-b7a9-bc4a5ca61188" points="13.42 46.68 17.25 46.79 16.68 51.09 12.68 50.99 13.42 46.68"/><polygon class="f27bfe11-b02b-4ec8-b7a9-bc4a5ca61188" points="38.8 48.76 39.48 51.72 43.93 52.15 42.31 48.76 38.8 48.76"/><polygon class="f27bfe11-b02b-4ec8-b7a9-bc4a5ca61188" points="37.37 41.77 40.89 43.44 40.73 40.58 37.57 38.78 37.37 41.77"/><polygon class="f27bfe11-b02b-4ec8-b7a9-bc4a5ca61188" points="38.57 33.27 39.45 31.14 42.01 32.97 41.48 35.79 38.57 33.27"/><polygon class="f27bfe11-b02b-4ec8-b7a9-bc4a5ca61188" points="42.27 26.42 44.37 25.06 46.03 27.48 44.67 29.31 42.27 26.42"/><polygon class="f27bfe11-b02b-4ec8-b7a9-bc4a5ca61188" points="47.96 22.63 48.89 24.62 50.55 23.29 50.38 22.2 47.96 22.63"/><path class="f27bfe11-b02b-4ec8-b7a9-bc4a5ca61188" d="M467.69,269.79a49.66,49.66,0,0,0-5.85,27.66l21.29,0c-0.67-3.9-6.2-15.12-2.22-25.64,5.68-15,18.87-10.44,20.75-9.73l0.8-2.39C498.51,255.37,477,252.31,467.69,269.79Z" transform="translate(-443.35 -240.25)"/></svg>