<svg xmlns="http://www.w3.org/2000/svg" viewBox="0 0 475 210"><defs><style>.a{fill:#e8762d;}.b{fill:#c72037;}.c{fill:#5b879b;}.d{fill:#5c6692;}.e{fill:#eb9129;}.f{fill:#1f457e;}.g{fill:#7199a6;}</style></defs><title>integration-tile</title><polygon class="a" points="121.69 103.28 113.41 103.28 113.41 94.27 110.15 94.27 110.15 103.28 101.86 103.28 101.86 106.47 110.15 106.47 110.15 115.48 113.41 115.48 113.41 106.47 121.69 106.47 121.69 103.28"/><polygon class="b" points="105.03 117.98 97.61 117.98 97.61 109.92 94.8 109.92 94.8 117.98 87.37 117.98 87.37 120.44 94.8 120.44 94.8 128.5 97.61 128.5 97.61 120.44 105.03 120.44 105.03 117.98"/><polygon class="c" points="136.18 89.13 128.76 89.13 128.76 81.03 125.95 81.03 125.95 89.13 118.52 89.13 118.52 91.58 125.95 91.58 125.95 99.61 128.76 99.61 128.76 91.58 136.18 91.58 136.18 89.13"/><polygon class="d" points="118.06 126.94 113.03 126.94 113.03 121.31 110.63 121.31 110.63 126.94 105.59 126.94 105.59 129.1 110.63 129.1 110.63 134.72 113.03 134.72 113.03 129.1 118.06 129.1 118.06 126.94"/><polygon class="e" points="105.03 89.13 97.52 89.13 97.52 81.03 94.89 81.03 94.89 89.13 87.37 89.13 87.37 91.52 94.89 91.52 94.89 99.61 97.52 99.61 97.52 91.52 105.03 91.52 105.03 89.13"/><polygon class="d" points="141.89 103.78 136.85 103.78 136.85 98.17 134.45 98.17 134.45 103.78 129.41 103.78 129.41 105.95 134.45 105.95 134.45 111.58 136.85 111.58 136.85 105.95 141.89 105.95 141.89 103.78"/><polygon class="f" points="136.18 117.98 128.76 117.98 128.76 109.92 125.95 109.92 125.95 117.98 118.52 117.98 118.52 120.44 125.95 120.44 125.95 128.5 128.76 128.5 128.76 120.44 136.18 120.44 136.18 117.98"/><polygon class="g" points="110.93 75.28 110.93 80.8 105.95 80.8 105.95 82.47 110.93 82.47 110.93 87.98 112.72 87.98 112.72 82.47 117.71 82.47 117.71 80.8 112.72 80.8 112.72 75.28 110.93 75.28"/><polygon class="g" points="93.37 104 88.37 104 88.37 98.59 86.61 98.59 86.61 104 81.61 104 81.61 105.75 86.61 105.72 86.61 111.16 88.37 111.16 88.37 105.7 93.37 105.67 93.37 104"/><path class="f" d="M242,89.55a13.66,13.66,0,0,1,4.82-1c5.57,0,9.33,3.91,9.33,10,0,6.36-4,10.08-10.92,10.08a22.42,22.42,0,0,1-7.28-1.31l-.12-28.09H242Zm3.64,15.29c3.89,0,6.12-2.23,6.12-6.21s-2.25-6.25-5.75-6.25a10,10,0,0,0-4,1v10.76a10.55,10.55,0,0,0,3.65.71"/><rect class="f" x="273.44" y="75.27" width="4.12" height="36.93"/><path class="f" d="M300.34,96.4h9.47a3.74,3.74,0,0,0-3.47-4h-.4a5.56,5.56,0,0,0-5.6,4M305,108.75c-6.35-.62-9.45-5.08-9.27-10.38.19-5.72,3.89-9.78,9.54-9.78,5.92,0,9.35,4.38,9.06,10.84H300.08c.34,3.58,2.49,5.27,5.43,5.5a14.68,14.68,0,0,0,7.77-1.54v3.94a14.72,14.72,0,0,1-8.27,1.42"/><path class="f" d="M375.49,105.49c2.62,0,4.38-1.33,4.38-4.32V89H384v12.73c0,4.25-3.3,6.85-8.55,6.85s-8.55-2.6-8.55-6.85V89h4.17v12.22c0,3,1.77,4.32,4.38,4.32"/><path class="f" d="M210.36,108.68c-7,0-10.92-3.72-10.92-10.08,0-6.13,3.76-10,9.33-10a8.53,8.53,0,0,1,4.84,1.27V88.45h4.17l-.17,18.91a20.3,20.3,0,0,1-7.28,1.31m-.42-3.83a14.82,14.82,0,0,0,3.57-.45l.13-10.67a6.91,6.91,0,0,0-4-1.35c-3.5,0-5.75,2.35-5.75,6.25s2.23,6.26,6.12,6.21"/><path class="f" d="M342,108.68c-7,0-10.92-3.72-10.92-10.08,0-6.13,3.76-10,9.33-10a8.53,8.53,0,0,1,4.82,1.32V88.45h4.17l-.12,18.9a20.28,20.28,0,0,1-7.27,1.31m-.42-3.83a15,15,0,0,0,3.57-.45l.08-10.66a6.91,6.91,0,0,0-4-1.35c-3.5,0-5.75,2.35-5.75,6.25s2.23,6.21,6.12,6.21"/><polygon class="f" points="168.43 80.56 172.55 80.56 172.55 92.28 183.7 92.28 183.7 96.11 172.55 96.11 172.55 108.81 168.43 108.81 168.43 96.11 157.28 96.11 157.28 92.28 168.43 92.28 168.43 80.56"/><path class="f" d="M390.89,88.8a2.48,2.48,0,1,1-2.46,2.5s0,0,0,0a2.44,2.44,0,0,1,2.41-2.47Zm0,.38a2.1,2.1,0,1,0,2,2,2.1,2.1,0,0,0-2-2Zm-.46,3.53H390V90a5,5,0,0,1,.78-.07,1.46,1.46,0,0,1,.86.21.67.67,0,0,1,.25.57.69.69,0,0,1-.54.67h0a.67.67,0,0,1,.46.67,2.42,2.42,0,0,0,.17.68h-.46a2,2,0,0,1-.19-.7.52.52,0,0,0-.55-.48h-.35v1.21Zm0-1.53h.32a.55.55,0,0,0,.66-.41v-.06a.54.54,0,0,0-.58-.49h-.41v.95Z"/><path class="c" d="M194.72,120.16l-1.72,1a3,3,0,0,0-.92-1.09,2.47,2.47,0,0,0-2.65.21,1.56,1.56,0,0,0-.58,1.24q0,1,1.53,1.66l1.4.57a6,6,0,0,1,2.51,1.69,3.82,3.82,0,0,1,.79,2.45,4.31,4.31,0,0,1-1.29,3.21,4.44,4.44,0,0,1-3.24,1.28,4.32,4.32,0,0,1-3-1.09,5,5,0,0,1-1.49-3l2.15-.47a3.66,3.66,0,0,0,.51,1.71,2.43,2.43,0,0,0,3.41.38l.16-.13a2.3,2.3,0,0,0,.66-1.69,2.36,2.36,0,0,0-.11-.75,1.92,1.92,0,0,0-.36-.63,2.84,2.84,0,0,0-.62-.54,6,6,0,0,0-.91-.48l-1.34-.58q-2.89-1.22-2.89-3.57a3.39,3.39,0,0,1,1.21-2.65,4.38,4.38,0,0,1,3-1.08A4.22,4.22,0,0,1,194.72,120.16Z"/><path class="c" d="M227.83,120.07h-5.65v3.38h5.48v2h-5.48v4.71h5.65v2h-7.77V118.07h7.77Z"/><path class="c" d="M257.81,126.14l4.36,6h-2.56l-4-5.76h-.38v5.76h-2.12V118.07h2.49a6.22,6.22,0,0,1,4,1,3.85,3.85,0,0,1,1.37,3.08,4,4,0,0,1-.86,2.57A3.82,3.82,0,0,1,257.81,126.14Zm-2.65-1.61h.67q3,0,3-2.31t-2.94-2.16h-.76v4.47Z"/><path class="c" d="M286.9,118.07l3.89,9.76,3.95-9.76h2.33l-6.32,15.14-6.14-15.14h2.29Z"/><path class="c" d="M329,120.07h-5.64v3.38h5.48v2h-5.48v4.71H329v2h-7.77V118.07H329Z"/><path class="c" d="M359,126.14l4.36,6h-2.6l-4-5.76h-.38v5.76h-2.15V118.07h2.49a6.22,6.22,0,0,1,4,1,3.85,3.85,0,0,1,1.37,3.08,4,4,0,0,1-.86,2.57A3.82,3.82,0,0,1,359,126.14Zm-2.64-1.61H357q3,0,3-2.31t-2.94-2.16h-.76v4.47Z"/></svg>