<svg id="Layer_1" data-name="Layer 1" xmlns="http://www.w3.org/2000/svg" viewBox="0 0 695.52 217.44"><defs><style>.cls-1{fill:#fff;}.cls-2{fill:#209ee1;}</style></defs><title>IBM_Watson</title><rect width="695.52" height="217.44"/><path class="cls-1" d="M342,144H326.29l-12.2-49h-0.2l-12,49h-16L266.79,72h15.83L294,121h0.2l12.5-49h14.82l12.3,49.62h0.2L345.85,72h15.53Zm19.17-36.1C362,94.61,374,90.47,385.69,90.47c10.39,0,22.89,2.32,22.89,14.82v27.12c0,4.74.5,9.48,1.82,11.6H395.87a21.39,21.39,0,0,1-1-5c-4.54,4.74-11.1,6.45-17.55,6.45-10,0-17.75-4.94-17.75-15.62,0.2-23.7,35.3-11,34.69-22.69,0-6.05-4.24-7.06-9.28-7.06-5.55,0-9,2.21-9.48,7.86H361.18Zm33.07,10.59c-2.42,2.12-7.46,2.22-11.9,3s-8.47,2.41-8.47,7.66,4.13,6.65,8.77,6.65c11.19,0,11.59-8.77,11.59-12V118.5Zm42-26.62H446.7v9.58H436.21v25.81c0,4.84,1.21,6.05,6,6.05a20.17,20.17,0,0,0,4.44-.4v11.19a55,55,0,0,1-8.36.5c-8.88,0-16.44-1.91-16.44-12.4V101.46h-8.67V91.88h8.67V76.25h14.32V91.88Zm28.94,35.19c0,6.15,5.45,8.77,11,8.77,4,0,9.38-1.61,9.38-6.65,0-4.34-6.05-6-16.24-8.06-8.37-1.92-16.53-4.64-16.53-13.92,0-13.32,11.49-16.74,22.69-16.74s21.88,3.83,23,16.64H484.82c-0.4-5.55-4.64-7.06-9.78-7.06-3.23,0-8,.5-8,4.84,0,5.14,8.17,5.84,16.24,7.77,8.37,1.91,16.53,4.94,16.53,14.62,0,13.71-12,18.15-23.8,18.15-12.1,0-24-4.54-24.5-18.35h13.61Zm66.46-36.6c16.43,0,27,10.89,27,27.53s-10.59,27.42-27,27.42S504.68,134.54,504.68,118,515.27,90.47,531.61,90.47Zm0,44.17c9.78,0,12.71-8.27,12.71-16.64s-2.93-16.74-12.71-16.74S519,109.63,519,118,521.93,134.64,531.61,134.64Zm33.88-42.76h13.61v7.26h0.31a18.36,18.36,0,0,1,15.93-8.67c15.23,0,19.06,8.57,19.06,21.48V144H600.08V114.57c0-8.57-2.42-12.81-9.17-12.81-7.77,0-11.09,4.34-11.09,14.93V144H565.49V91.88Z"/><rect class="cls-2" x="81.12" y="72.02" width="6.86" height="72"/><path class="cls-2" d="M101.79,72h30.46c12.1,0,23.09,4.24,23.09,17.65,0,7.57-5,14.52-12.5,16.13V106c9.28,1.21,15.23,8.16,15.23,17.55,0,6.86-2.42,20.47-25.82,20.47H101.79V72Zm6.86,31.57h23.6c10.89,0,16.24-5.45,16.24-12.2,0-9-5.45-13.51-16.24-13.51h-23.6v25.72Zm0,34.59h23.6c10.18,0,19-3.13,19-14.83,0-9.28-6.86-13.92-19-13.92h-23.6v28.75Z"/><polygon class="cls-2" points="168.66 72.02 178.75 72.02 203.66 135.15 228.47 72.02 238.55 72.02 238.55 144.02 231.69 144.02 231.69 81.8 231.49 81.8 206.88 144.02 200.43 144.02 175.72 81.8 175.52 81.8 175.52 144.02 168.66 144.02 168.66 72.02"/></svg>